<?xml version="1.0" encoding="UTF-8" standalone="no"?>
<!-- Created with Inkscape (http://www.inkscape.org/) -->

<svg
   width="19.371887mm"
   height="146.017mm"
   viewBox="0 0 19.371887 146.017"
   version="1.1"
   id="svg1316947"
   inkscape:version="1.1.1 (3bf5ae0d25, 2021-09-20)"
   sodipodi:docname="pen_back_history.svg"
   xmlns:inkscape="http://www.inkscape.org/namespaces/inkscape"
   xmlns:sodipodi="http://sodipodi.sourceforge.net/DTD/sodipodi-0.dtd"
   xmlns="http://www.w3.org/2000/svg"
   xmlns:svg="http://www.w3.org/2000/svg">
  <sodipodi:namedview
     id="namedview1316949"
     pagecolor="#ffffff"
     bordercolor="#666666"
     borderopacity="1.0"
     inkscape:pageshadow="2"
     inkscape:pageopacity="0.0"
     inkscape:pagecheckerboard="0"
     inkscape:document-units="mm"
     showgrid="false"
     fit-margin-top="0"
     fit-margin-left="0"
     fit-margin-right="0"
     fit-margin-bottom="0"
     inkscape:zoom="1.9506342"
     inkscape:cx="59.211512"
     inkscape:cy="255.81424"
     inkscape:window-width="2560"
     inkscape:window-height="1371"
     inkscape:window-x="0"
     inkscape:window-y="32"
     inkscape:window-maximized="1"
     inkscape:current-layer="text56541" />
  <defs
     id="defs1316944">
    <inkscape:path-effect
       effect="skeletal"
       id="path-effect27441"
       is_visible="true"
       lpeversion="1"
       pattern="m 165.96494,-47.686816 c -0.46836,-2.330714 -2.93354,-3.801041 -5.50611,-3.284078 -2.5726,0.516968 -4.2784,2.825475 -3.81003,5.156176 0.46835,2.330703 2.36681,2.42379 4.9394,1.906836 2.57259,-0.516974 4.8451,-1.44822 4.37674,-3.778934 z"
       copytype="single_stretched"
       prop_scale="0.943279"
       scale_y_rel="false"
       spacing="0"
       normal_offset="0"
       tang_offset="0"
       prop_units="false"
       vertical_pattern="false"
       hide_knot="false"
       fuse_tolerance="0" />
  </defs>
  <g
     inkscape:label="Layer 1"
     inkscape:groupmode="layer"
     id="layer1"
     transform="translate(-143.46973,-117.71366)">
    <g
       id="g1316680"
       transform="translate(107.48366,129.98985)">
      <g
         id="g1300236"
         transform="rotate(180,62.507509,61.03732)">
        <g
           transform="matrix(0.25720727,0.16307411,-0.16307411,0.25720727,31.248617,14.550027)"
           id="g152">
          <path
             id="path27443"
             style="fill:#ff6584;fill-opacity:1;stroke:#ff6584;stroke-width:0.177227;stroke-linecap:butt;stroke-linejoin:miter;stroke-miterlimit:4;stroke-dasharray:none;stroke-opacity:1"
             d="m 147.53643,-51.354727 5.39959,8.033731 v 0 0 l 0.10993,-0.685004 -5.15553,-7.678752 z m 3.78845,-5.291273 a 6.297883,6.2979999 0 0 1 -6.29789,6.298 6.297883,6.2979999 0 0 1 -6.29788,-6.298 6.297883,6.2979999 0 0 1 6.29788,-6.298 6.297883,6.2979999 0 0 1 6.29789,6.298 z" />
        </g>
        <g
           id="g1237"
           transform="matrix(-0.28112967,-0.04164347,-0.04164347,0.28112967,33.164833,0.30378611)">
          <path
             id="circle25800"
             style="fill:#808080;fill-opacity:1;stroke:#808080;stroke-width:0.159647;stroke-opacity:1"
             d="m -176.36836,78.553253 a 0.7832948,0.7832948 0 0 1 -0.7833,0.783295 0.7832948,0.7832948 0 0 1 -0.78329,-0.783295 0.7832948,0.7832948 0 0 1 0.78329,-0.783295 0.7832948,0.7832948 0 0 1 0.7833,0.783295 z" />
          <path
             id="path25802"
             style="fill:#ff6584;fill-opacity:1;stroke:#ff6584;stroke-width:0.171482;stroke-opacity:1"
             d="m 38.261719,107.94531 c -2.102027,-0.002 -4.019958,1.14866 -4.75586,3.06446 -0.404627,1.05337 -0.333342,1.88455 0.08203,2.57617 a 7.3852488,7.3852488 0 0 1 1.933593,-0.29492 7.3852488,7.3852488 0 0 1 6.296875,3.38671 c 0.839981,-0.20944 1.51121,-0.73801 1.898438,-1.74609 0.981215,-2.55441 -0.510594,-5.5029 -3.330078,-6.58594 -0.704877,-0.27076 -1.424325,-0.39982 -2.125,-0.40039 z"
             transform="matrix(-0.92093602,-0.13641738,-0.13641738,0.92093602,-128.01709,-23.813802)" />
          <path
             id="ellipse25804"
             style="fill:#808080;stroke:#808080;stroke-width:0.171482;stroke-opacity:1"
             d="m 28.888672,110.5957 a 3.6926277,1.1592263 77.508072 0 0 -0.332031,3.85547 3.6926277,1.1592263 77.508072 0 0 0.828125,2.35156 7.3852488,7.3852488 0 0 0 -1.146485,4.01563 7.3852488,7.3852488 0 0 0 3.09375,5.90625 l -0.36914,2.49023 a 1.8696857,0.70113269 8.4258978 0 0 -1.580079,0.45313 1.8696857,0.70113269 8.4258978 0 0 1.746094,0.96875 1.8696857,0.70113269 8.4258978 0 0 1.939453,-0.375 h 0.0059 l 0.0059,-0.0371 a 1.8696857,0.70113269 8.4258978 0 0 0.002,-0.008 1.8696857,0.70113269 8.4258978 0 0 0,-0.008 l 0.361328,-2.43554 a 7.3852488,7.3852488 0 0 0 1.626953,0.28515 l 0.900391,2.06641 a 0.70113269,1.8696857 66.375281 0 0 -1.097656,1.2207 0.70113269,1.8696857 66.375281 0 0 1.994141,-0.10742 0.70113269,1.8696857 66.375281 0 0 1.43164,-1.39258 0.70113269,1.8696857 66.375281 0 0 -0.03711,-0.0351 l 0.01953,-0.008 -0.84375,-1.92773 a 7.3852488,7.3852488 0 0 0 5.570312,-7.25977 7.3852488,7.3852488 0 0 0 -0.05469,-0.58007 1.1592263,3.6926275 73.051637 0 0 1.738281,-0.38086 1.1592263,3.6926275 73.051637 0 0 3.195313,-2.18555 1.1592263,3.6926275 73.051637 0 0 -3.871094,-0.0312 1.1592263,3.6926275 73.051637 0 0 -1.533203,0.59375 7.3852488,7.3852488 0 0 0 -6.960938,-4.69922 7.3852488,7.3852488 0 0 0 -4.527343,1.65235 3.6926277,1.1592263 77.508072 0 0 -0.173829,-1.03516 3.6926277,1.1592263 77.508072 0 0 -1.93164,-3.35352 z m 7.59375,4.47657 a 2.5240724,2.5240724 0 0 1 0.359375,0.0371 2.5240724,2.5240724 0 0 1 2.041015,2.92773 2.5240724,2.5240724 0 0 1 -2.927734,2.04297 2.5240724,2.5240724 0 0 1 -2.041016,-2.92774 2.5240724,2.5240724 0 0 1 2.56836,-2.08007 z m -4.431641,5.57226 c 0.604588,-0.0259 2.044619,0.72062 3.640625,0.95703 2.042909,0.30262 3.922324,0.32208 3.816406,1.03711 -0.105915,0.71502 -2.156299,1.8534 -4.199218,1.55078 -2.042898,-0.30261 -3.660603,-2.59943 -3.554688,-3.31445 0.02317,-0.15641 0.127591,-0.22322 0.296875,-0.23047 z"
             transform="matrix(-0.92093602,-0.13641738,-0.13641738,0.92093602,-128.01709,-23.813802)" />
        </g>
      </g>
      <g
         aria-label="4b825dc642cb6eb9a060e54bf8d69288fbee4904"
         transform="rotate(89.557642)"
         id="text56541"
         style="font-size:4.23333px;line-height:1.25;font-family:'Amiri Quran';-inkscape-font-specification:'Amiri Quran';text-align:center;letter-spacing:0px;word-spacing:0px;text-anchor:middle;stroke-width:0.264583">
        <g
           aria-label="Let's write history together"
           transform="rotate(0.41696686)"
           id="text67296"
           style="font-size:4.58611px;stroke-width:0.0700042">
          <path
             d="m 22.476377,-44.653293 c 0,-0.105481 0,-0.210962 -0.192616,-0.210962 l -1.045633,0.01834 v -2.58198 c 0,-0.142169 -0.02752,-0.201789 -0.201789,-0.201789 h -0.151342 c -0.160514,0 -0.206375,0.04128 -0.206375,0.206375 v 2.770011 c 0,0.160513 0.04127,0.206375 0.206375,0.206375 h 1.389592 c 0.183444,0 0.201788,-0.06879 0.201788,-0.206375 z"
             style="font-family:'Latin Modern Sans Demi Cond';-inkscape-font-specification:'Latin Modern Sans Demi Cond'"
             id="path73279" />
          <path
             d="m 24.549299,-45.708099 c 0,-0.628297 -0.293511,-0.972255 -0.8255,-0.972255 -0.403578,0 -0.940153,0.229305 -0.940153,1.137355 0,0.894292 0.545748,1.141942 0.995186,1.141942 0.169686,0 0.311856,-0.03669 0.454025,-0.100895 0.08714,-0.04127 0.288925,-0.155928 0.288925,-0.243064 0,-0.03669 -0.0092,-0.123825 -0.01376,-0.1651 -0.01376,-0.08714 -0.01376,-0.110066 -0.05962,-0.110066 -0.02293,0 -0.03669,0.01376 -0.05962,0.04127 -0.215547,0.256822 -0.4953,0.284339 -0.591608,0.284339 -0.541161,0 -0.541161,-0.678745 -0.541161,-0.816328 h 1.091494 c 0.146756,0 0.201789,-0.0321 0.201789,-0.197203 z m -0.394406,-0.01834 h -0.894291 c 0.01834,-0.3302 0.151342,-0.6604 0.467783,-0.6604 0.398992,0 0.417336,0.426508 0.426508,0.6604 z"
             style="font-family:'Latin Modern Sans Demi Cond';-inkscape-font-specification:'Latin Modern Sans Demi Cond'"
             id="path73281" />
          <path
             d="m 26.131506,-44.676224 c 0,-0.01834 -0.02752,-0.110067 -0.0321,-0.132997 -0.02293,-0.07796 -0.0321,-0.09631 -0.06879,-0.09631 -0.02293,0 -0.03669,0.0092 -0.06879,0.05503 -0.05045,0.05962 -0.1651,0.128411 -0.288925,0.128411 -0.09172,0 -0.155928,-0.07338 -0.155928,-0.362303 v -1.233663 h 0.339372 c 0.05962,0 0.201789,0 0.201789,-0.146756 0,-0.146755 -0.142169,-0.146755 -0.201789,-0.146755 h -0.339372 v -0.417336 c 0,-0.14217 -0.02752,-0.201789 -0.201789,-0.201789 h -0.05962 c -0.160514,0 -0.206375,0.04128 -0.206375,0.206375 v 0.41275 h -0.08714 c -0.05962,0 -0.206375,0 -0.206375,0.146755 0,0.146756 0.142169,0.146756 0.201789,0.146756 h 0.07796 v 1.316213 c 0,0.30727 0.08255,0.600781 0.403578,0.600781 0.371475,0 0.692503,-0.210961 0.692503,-0.275167 z"
             style="font-family:'Latin Modern Sans Demi Cond';-inkscape-font-specification:'Latin Modern Sans Demi Cond'"
             id="path73283" />
          <path
             d="m 27.1221,-46.57946 v -0.967669 c 0,-0.09631 -0.07796,-0.169686 -0.169686,-0.169686 h -0.174273 c -0.09172,0 -0.169686,0.07338 -0.169686,0.169686 v 0.967669 c 0,0.09172 0.07796,0.169686 0.169686,0.169686 h 0.174273 c 0.09172,0 0.169686,-0.07796 0.169686,-0.169686 z"
             style="font-family:'Latin Modern Sans Demi Cond';-inkscape-font-specification:'Latin Modern Sans Demi Cond'"
             id="path73285" />
          <path
             d="m 29.039093,-45.088974 c 0,-0.174272 -0.05503,-0.339372 -0.169686,-0.472369 -0.160513,-0.178859 -0.307269,-0.210961 -0.486127,-0.24765 -0.201789,-0.04586 -0.371475,-0.08255 -0.371475,-0.316442 0,-0.206375 0.114653,-0.27058 0.288925,-0.27058 0.288925,0 0.440266,0.128411 0.51823,0.197202 0.02293,0.01835 0.0321,0.02293 0.05045,0.02293 0.04128,0 0.04586,-0.02293 0.06421,-0.123825 0.0092,-0.02752 0.0321,-0.151342 0.0321,-0.169686 0,-0.03669 -0.0046,-0.04128 -0.09631,-0.08714 -0.142169,-0.07338 -0.288925,-0.123825 -0.541161,-0.123825 -0.27058,0 -0.710847,0.06421 -0.710847,0.646641 0,0.536575 0.4953,0.646642 0.651228,0.678745 0.178858,0.04127 0.376061,0.08255 0.376061,0.339372 0,0.279753 -0.197203,0.298097 -0.321028,0.298097 -0.137583,0 -0.357716,-0.03669 -0.559505,-0.238478 -0.04586,-0.04586 -0.05503,-0.04586 -0.07338,-0.04586 -0.04128,0 -0.05045,0.04127 -0.05045,0.05503 -0.0092,0.02752 -0.05045,0.252236 -0.05045,0.27058 0,0.08714 0.224719,0.169686 0.298097,0.197203 0.215547,0.07796 0.385233,0.07796 0.444853,0.07796 0.472369,0 0.70626,-0.238478 0.70626,-0.687917 z"
             style="font-family:'Latin Modern Sans Demi Cond';-inkscape-font-specification:'Latin Modern Sans Demi Cond'"
             id="path73287" />
          <path
             d="m 33.441749,-46.492324 c 0,-0.119238 -0.114652,-0.119238 -0.197202,-0.119238 -0.114653,0 -0.22472,0 -0.265995,0.178858 l -0.348544,1.467555 -0.348544,-1.467555 c -0.04127,-0.178858 -0.169686,-0.178858 -0.229306,-0.178858 -0.183444,0 -0.206375,0.09172 -0.233891,0.206374 l -0.238478,1.008945 c -0.03669,0.160514 -0.06879,0.284339 -0.08714,0.421922 h -0.0046 c -0.01835,-0.146756 -0.02293,-0.160514 -0.05962,-0.311856 l -0.265994,-1.128183 c -0.02752,-0.110066 -0.04586,-0.197202 -0.24765,-0.197202 h -0.05045 c -0.05962,0 -0.178859,0 -0.178859,0.119238 l 0.01835,0.08255 0.421922,1.783997 c 0.04127,0.178859 0.160514,0.178859 0.24765,0.178859 h 0.08714 c 0.07796,0 0.169686,0 0.224719,-0.105481 0.0092,-0.01834 0.30727,-1.17863 0.30727,-1.518002 0.02752,0.376061 0.298097,1.481313 0.311855,1.513416 0.05503,0.110067 0.151342,0.110067 0.229306,0.110067 h 0.220133 c 0.08714,0 0.206375,0 0.24765,-0.178859 l 0.426508,-1.793169 c 0.0046,-0.02293 0.01376,-0.05045 0.01376,-0.07338 z"
             style="font-family:'Latin Modern Sans Demi Cond';-inkscape-font-specification:'Latin Modern Sans Demi Cond'"
             id="path73289" />
          <path
             d="m 34.945986,-46.405188 v -0.132997 c 0,-0.09631 0,-0.119239 -0.07338,-0.119239 -0.201789,0 -0.467783,0.137584 -0.60078,0.522817 h -0.0046 v -0.302683 c 0,-0.14217 -0.02752,-0.201789 -0.201789,-0.201789 h -0.06421 c -0.160514,0 -0.206375,0.04128 -0.206375,0.206375 v 1.779411 c 0,0.160513 0.04127,0.206375 0.206375,0.206375 h 0.08714 c 0.160514,0 0.201789,-0.04586 0.201789,-0.201789 v -0.926395 c 0,-0.421922 0.256822,-0.68333 0.573264,-0.710847 0.07796,-0.0046 0.08255,-0.0092 0.08255,-0.119239 z"
             style="font-family:'Latin Modern Sans Demi Cond';-inkscape-font-specification:'Latin Modern Sans Demi Cond'"
             id="path73291" />
          <path
             d="m 35.757723,-44.648707 v -1.761067 c 0,-0.142169 -0.02752,-0.201788 -0.201788,-0.201788 h -0.08714 c -0.160513,0 -0.206374,0.04127 -0.206374,0.206374 v 1.751895 c 0,0.160513 0.04127,0.206375 0.206374,0.206375 h 0.08714 c 0.160513,0 0.201788,-0.04586 0.201788,-0.201789 z m 0.03669,-2.586566 v -0.110067 c 0,-0.174272 -0.04586,-0.215547 -0.206375,-0.215547 h -0.151341 c -0.155928,0 -0.206375,0.03669 -0.206375,0.215547 v 0.110067 c 0,0.1651 0.04127,0.215547 0.206375,0.215547 h 0.151341 c 0.160514,0 0.206375,-0.04586 0.206375,-0.215547 z"
             style="font-family:'Latin Modern Sans Demi Cond';-inkscape-font-specification:'Latin Modern Sans Demi Cond'"
             id="path73293" />
          <path
             d="m 37.472928,-44.676224 c 0,-0.01834 -0.02752,-0.110067 -0.0321,-0.132997 -0.02293,-0.07796 -0.0321,-0.09631 -0.06879,-0.09631 -0.02293,0 -0.03669,0.0092 -0.06879,0.05503 -0.05045,0.05962 -0.1651,0.128411 -0.288925,0.128411 -0.09172,0 -0.155928,-0.07338 -0.155928,-0.362303 v -1.233663 h 0.339372 c 0.05962,0 0.201789,0 0.201789,-0.146756 0,-0.146755 -0.142169,-0.146755 -0.201789,-0.146755 h -0.339372 v -0.417336 c 0,-0.14217 -0.02752,-0.201789 -0.201789,-0.201789 h -0.05962 c -0.160514,0 -0.206375,0.04128 -0.206375,0.206375 v 0.41275 h -0.08714 c -0.05962,0 -0.206375,0 -0.206375,0.146755 0,0.146756 0.142169,0.146756 0.201789,0.146756 h 0.07796 v 1.316213 c 0,0.30727 0.08255,0.600781 0.403577,0.600781 0.371475,0 0.692503,-0.210961 0.692503,-0.275167 z"
             style="font-family:'Latin Modern Sans Demi Cond';-inkscape-font-specification:'Latin Modern Sans Demi Cond'"
             id="path73295" />
          <path
             d="m 39.486224,-45.708099 c 0,-0.628297 -0.293511,-0.972255 -0.8255,-0.972255 -0.403577,0 -0.940152,0.229305 -0.940152,1.137355 0,0.894292 0.545747,1.141942 0.995186,1.141942 0.169686,0 0.311855,-0.03669 0.454025,-0.100895 0.08714,-0.04127 0.288925,-0.155928 0.288925,-0.243064 0,-0.03669 -0.0092,-0.123825 -0.01376,-0.1651 -0.01376,-0.08714 -0.01376,-0.110066 -0.05962,-0.110066 -0.02293,0 -0.03669,0.01376 -0.05962,0.04127 -0.215547,0.256822 -0.4953,0.284339 -0.591608,0.284339 -0.541161,0 -0.541161,-0.678745 -0.541161,-0.816328 h 1.091494 c 0.146756,0 0.201789,-0.0321 0.201789,-0.197203 z m -0.394405,-0.01834 h -0.894292 c 0.01834,-0.3302 0.151342,-0.6604 0.467784,-0.6604 0.398991,0 0.417336,0.426508 0.426508,0.6604 z"
             style="font-family:'Latin Modern Sans Demi Cond';-inkscape-font-specification:'Latin Modern Sans Demi Cond'"
             id="path73297" />
          <path
             d="m 43.026697,-44.648707 v -1.366661 c 0,-0.366889 -0.114652,-0.642056 -0.587022,-0.642056 -0.366889,0 -0.550333,0.265995 -0.628297,0.435681 h -0.0046 v -1.206147 c 0,-0.142169 -0.02752,-0.201789 -0.201789,-0.201789 h -0.08714 c -0.160514,0 -0.206375,0.04128 -0.206375,0.206375 v 2.770011 c 0,0.160513 0.04127,0.206375 0.206375,0.206375 h 0.100894 c 0.160514,0 0.201789,-0.04586 0.201789,-0.201789 v -1.096081 c 0,-0.417336 0.233892,-0.619125 0.449439,-0.619125 0.192617,0 0.24765,0.110067 0.24765,0.366889 v 1.348317 c 0,0.142169 0.02752,0.201789 0.201789,0.201789 h 0.10548 c 0.160514,0 0.201789,-0.04586 0.201789,-0.201789 z"
             style="font-family:'Latin Modern Sans Demi Cond';-inkscape-font-specification:'Latin Modern Sans Demi Cond'"
             id="path73299" />
          <path
             d="m 44.026468,-44.648707 v -1.761067 c 0,-0.142169 -0.02752,-0.201788 -0.201789,-0.201788 h -0.08714 c -0.160514,0 -0.206375,0.04127 -0.206375,0.206374 v 1.751895 c 0,0.160513 0.04127,0.206375 0.206375,0.206375 h 0.08714 c 0.160514,0 0.201789,-0.04586 0.201789,-0.201789 z m 0.03669,-2.586566 v -0.110067 c 0,-0.174272 -0.04586,-0.215547 -0.206375,-0.215547 H 43.70544 c -0.155928,0 -0.206375,0.03669 -0.206375,0.215547 v 0.110067 c 0,0.1651 0.04127,0.215547 0.206375,0.215547 h 0.151342 c 0.160514,0 0.206375,-0.04586 0.206375,-0.215547 z"
             style="font-family:'Latin Modern Sans Demi Cond';-inkscape-font-specification:'Latin Modern Sans Demi Cond'"
             id="path73301" />
          <path
             d="m 45.85174,-45.088974 c 0,-0.174272 -0.05503,-0.339372 -0.169686,-0.472369 -0.160514,-0.178859 -0.30727,-0.210961 -0.486128,-0.24765 -0.201789,-0.04586 -0.371475,-0.08255 -0.371475,-0.316442 0,-0.206375 0.114653,-0.27058 0.288925,-0.27058 0.288925,0 0.440267,0.128411 0.518231,0.197202 0.02293,0.01835 0.0321,0.02293 0.05045,0.02293 0.04127,0 0.04586,-0.02293 0.06421,-0.123825 0.0092,-0.02752 0.0321,-0.151342 0.0321,-0.169686 0,-0.03669 -0.0046,-0.04128 -0.09631,-0.08714 -0.14217,-0.07338 -0.288925,-0.123825 -0.541161,-0.123825 -0.270581,0 -0.710847,0.06421 -0.710847,0.646641 0,0.536575 0.4953,0.646642 0.651227,0.678745 0.178859,0.04127 0.376061,0.08255 0.376061,0.339372 0,0.279753 -0.197202,0.298097 -0.321027,0.298097 -0.137584,0 -0.357717,-0.03669 -0.559506,-0.238478 -0.04586,-0.04586 -0.05503,-0.04586 -0.07338,-0.04586 -0.04128,0 -0.05045,0.04127 -0.05045,0.05503 -0.0092,0.02752 -0.05045,0.252236 -0.05045,0.27058 0,0.08714 0.224719,0.169686 0.298097,0.197203 0.215547,0.07796 0.385233,0.07796 0.444853,0.07796 0.472369,0 0.706261,-0.238478 0.706261,-0.687917 z"
             style="font-family:'Latin Modern Sans Demi Cond';-inkscape-font-specification:'Latin Modern Sans Demi Cond'"
             id="path73303" />
          <path
             d="m 47.41101,-44.676224 c 0,-0.01834 -0.02752,-0.110067 -0.0321,-0.132997 -0.02293,-0.07796 -0.0321,-0.09631 -0.06879,-0.09631 -0.02293,0 -0.03669,0.0092 -0.06879,0.05503 -0.05045,0.05962 -0.165099,0.128411 -0.288924,0.128411 -0.09172,0 -0.155928,-0.07338 -0.155928,-0.362303 v -1.233663 h 0.339372 c 0.05962,0 0.201789,0 0.201789,-0.146756 0,-0.146755 -0.14217,-0.146755 -0.201789,-0.146755 h -0.339372 v -0.417336 c 0,-0.14217 -0.02752,-0.201789 -0.201789,-0.201789 h -0.05962 c -0.160514,0 -0.206375,0.04128 -0.206375,0.206375 v 0.41275 h -0.08714 c -0.05962,0 -0.206374,0 -0.206374,0.146755 0,0.146756 0.142169,0.146756 0.201788,0.146756 h 0.07796 v 1.316213 c 0,0.30727 0.08255,0.600781 0.403578,0.600781 0.371475,0 0.692503,-0.210961 0.692503,-0.275167 z"
             style="font-family:'Latin Modern Sans Demi Cond';-inkscape-font-specification:'Latin Modern Sans Demi Cond'"
             id="path73305" />
          <path
             d="m 49.593992,-45.510896 c 0,-0.215547 -0.02293,-0.57785 -0.238478,-0.84843 -0.197202,-0.252236 -0.4953,-0.321028 -0.729191,-0.321028 -0.252236,0 -0.550333,0.08255 -0.733778,0.3302 -0.18803,0.24765 -0.233891,0.554919 -0.233891,0.839258 0,0.24765 0.0321,0.559505 0.243063,0.816328 0.14217,0.169686 0.398992,0.293511 0.724606,0.293511 0.201789,0 0.504472,-0.05045 0.710847,-0.284339 0.243064,-0.270581 0.256822,-0.642056 0.256822,-0.8255 z m -0.509058,-0.05503 c 0,0.307269 0,0.843844 -0.458611,0.843844 -0.458611,0 -0.458611,-0.536575 -0.458611,-0.843844 0,-0.30727 0,-0.820914 0.458611,-0.820914 0.458611,0 0.458611,0.51823 0.458611,0.820914 z"
             style="font-family:'Latin Modern Sans Demi Cond';-inkscape-font-specification:'Latin Modern Sans Demi Cond'"
             id="path73307" />
          <path
             d="m 51.006503,-46.405188 v -0.132997 c 0,-0.09631 0,-0.119239 -0.07338,-0.119239 -0.201788,0 -0.467783,0.137584 -0.60078,0.522817 h -0.0046 v -0.302683 c 0,-0.14217 -0.02752,-0.201789 -0.201789,-0.201789 h -0.06421 c -0.160513,0 -0.206375,0.04128 -0.206375,0.206375 v 1.779411 c 0,0.160513 0.04127,0.206375 0.206375,0.206375 h 0.08714 c 0.160513,0 0.201788,-0.04586 0.201788,-0.201789 v -0.926395 c 0,-0.421922 0.256823,-0.68333 0.573264,-0.710847 0.07796,-0.0046 0.08255,-0.0092 0.08255,-0.119239 z"
             style="font-family:'Latin Modern Sans Demi Cond';-inkscape-font-specification:'Latin Modern Sans Demi Cond'"
             id="path73309" />
          <path
             d="m 52.941838,-46.49691 c 0,-0.114652 -0.100895,-0.114652 -0.192617,-0.114652 -0.132997,0 -0.220133,0 -0.27058,0.183444 l -0.169686,0.591608 c -0.14217,0.490714 -0.178859,0.738364 -0.188031,0.848431 -0.0046,-0.100895 -0.0092,-0.30727 -0.380647,-1.288697 -0.105481,-0.284339 -0.123825,-0.334786 -0.334786,-0.334786 h -0.05503 c -0.06879,0 -0.169686,0 -0.169686,0.110066 0,0 0,0.02293 0.02293,0.08255 l 0.729191,1.907822 c 0.01834,0.05503 0.01834,0.06879 0.01834,0.06879 0,0.04586 -0.07796,0.275166 -0.110067,0.325613 -0.03669,0.06421 -0.123825,0.155928 -0.275166,0.155928 -0.0321,0 -0.137584,-0.0046 -0.265995,-0.06421 -0.02293,-0.0092 -0.0321,-0.01376 -0.0321,-0.01376 -0.0321,0 -0.05503,0.01835 -0.05503,0.06421 0,0.03669 0.01835,0.275166 0.04127,0.293511 0.03669,0.02752 0.215547,0.04586 0.30727,0.04586 0.357716,0 0.605366,-0.261408 0.701674,-0.57785 l 0.655814,-2.196747 c 0.02293,-0.06879 0.02293,-0.08714 0.02293,-0.08714 z"
             style="font-family:'Latin Modern Sans Demi Cond';-inkscape-font-specification:'Latin Modern Sans Demi Cond'"
             id="path73311" />
          <path
             d="m 55.959492,-44.676224 c 0,-0.01834 -0.02752,-0.110067 -0.0321,-0.132997 -0.02293,-0.07796 -0.0321,-0.09631 -0.06879,-0.09631 -0.02293,0 -0.03669,0.0092 -0.06879,0.05503 -0.05045,0.05962 -0.1651,0.128411 -0.288925,0.128411 -0.09172,0 -0.155927,-0.07338 -0.155927,-0.362303 v -1.233663 h 0.339372 c 0.05962,0 0.201789,0 0.201789,-0.146756 0,-0.146755 -0.14217,-0.146755 -0.201789,-0.146755 h -0.339372 v -0.417336 c 0,-0.14217 -0.02752,-0.201789 -0.201789,-0.201789 h -0.05962 c -0.160513,0 -0.206375,0.04128 -0.206375,0.206375 v 0.41275 h -0.08714 c -0.05962,0 -0.206375,0 -0.206375,0.146755 0,0.146756 0.14217,0.146756 0.201789,0.146756 h 0.07796 v 1.316213 c 0,0.30727 0.08255,0.600781 0.403578,0.600781 0.371475,0 0.692502,-0.210961 0.692502,-0.275167 z"
             style="font-family:'Latin Modern Sans Demi Cond';-inkscape-font-specification:'Latin Modern Sans Demi Cond'"
             id="path73313" />
          <path
             d="m 58.142479,-45.510896 c 0,-0.215547 -0.02293,-0.57785 -0.238478,-0.84843 -0.197203,-0.252236 -0.4953,-0.321028 -0.729191,-0.321028 -0.252237,0 -0.550334,0.08255 -0.733778,0.3302 -0.188031,0.24765 -0.233892,0.554919 -0.233892,0.839258 0,0.24765 0.0321,0.559505 0.243064,0.816328 0.14217,0.169686 0.398992,0.293511 0.724606,0.293511 0.201788,0 0.504472,-0.05045 0.710847,-0.284339 0.243063,-0.270581 0.256822,-0.642056 0.256822,-0.8255 z m -0.509058,-0.05503 c 0,0.307269 0,0.843844 -0.458611,0.843844 -0.458611,0 -0.458611,-0.536575 -0.458611,-0.843844 0,-0.30727 0,-0.820914 0.458611,-0.820914 0.458611,0 0.458611,0.51823 0.458611,0.820914 z"
             style="font-family:'Latin Modern Sans Demi Cond';-inkscape-font-specification:'Latin Modern Sans Demi Cond'"
             id="path73315" />
          <path
             d="m 60.219979,-44.570743 v -1.884892 c 0,-0.142169 -0.02752,-0.201789 -0.201789,-0.201789 h -0.09172 c -0.201789,0 -0.201789,0.07796 -0.201789,0.265995 -0.128411,-0.206375 -0.284339,-0.265995 -0.444853,-0.265995 -0.192617,0 -0.481541,0.06879 -0.664986,0.334786 -0.178858,0.256823 -0.201789,0.573264 -0.201789,0.784225 0,0.14217 0.0046,0.454025 0.197203,0.706261 0.201789,0.261409 0.522817,0.288925 0.637469,0.288925 0.09172,0 0.3302,-0.0046 0.458611,-0.3302 h 0.0046 v 0.426509 c 0,0.330199 -0.09631,0.564091 -0.385233,0.564091 -0.302683,0 -0.513644,-0.10548 -0.646641,-0.18803 -0.03669,-0.0321 -0.04586,-0.0321 -0.05962,-0.0321 -0.05045,0 -0.05045,0.05045 -0.05045,0.119239 v 0.10548 c 0,0.09631 0.0046,0.100895 0.07338,0.137583 0.279752,0.132998 0.541161,0.151342 0.692502,0.151342 0.664986,0 0.88512,-0.481541 0.88512,-0.981427 z m -0.4953,-1.123597 c -0.01376,0.04586 -0.01376,0.05503 -0.01376,0.110066 -0.0046,0.522817 -0.132997,0.747536 -0.362302,0.747536 -0.426509,0 -0.426509,-0.582436 -0.426509,-0.701675 0,-0.343958 0.08255,-0.8255 0.476956,-0.8255 0.197203,0 0.325614,0.188031 0.325614,0.380648 z"
             style="font-family:'Latin Modern Sans Demi Cond';-inkscape-font-specification:'Latin Modern Sans Demi Cond'"
             id="path73317" />
          <path
             d="m 62.366275,-45.708099 c 0,-0.628297 -0.293511,-0.972255 -0.8255,-0.972255 -0.403578,0 -0.940152,0.229305 -0.940152,1.137355 0,0.894292 0.545747,1.141942 0.995185,1.141942 0.169686,0 0.311856,-0.03669 0.454025,-0.100895 0.08714,-0.04127 0.288925,-0.155928 0.288925,-0.243064 0,-0.03669 -0.0092,-0.123825 -0.01376,-0.1651 -0.01376,-0.08714 -0.01376,-0.110066 -0.05962,-0.110066 -0.02293,0 -0.03669,0.01376 -0.05962,0.04127 -0.215547,0.256822 -0.4953,0.284339 -0.591608,0.284339 -0.541161,0 -0.541161,-0.678745 -0.541161,-0.816328 h 1.091494 c 0.146756,0 0.201789,-0.0321 0.201789,-0.197203 z m -0.394406,-0.01834 h -0.894291 c 0.01834,-0.3302 0.151342,-0.6604 0.467783,-0.6604 0.398992,0 0.417336,0.426508 0.426508,0.6604 z"
             style="font-family:'Latin Modern Sans Demi Cond';-inkscape-font-specification:'Latin Modern Sans Demi Cond'"
             id="path73319" />
          <path
             d="m 63.948483,-44.676224 c 0,-0.01834 -0.02752,-0.110067 -0.0321,-0.132997 -0.02293,-0.07796 -0.0321,-0.09631 -0.06879,-0.09631 -0.02293,0 -0.03669,0.0092 -0.06879,0.05503 -0.05045,0.05962 -0.1651,0.128411 -0.288925,0.128411 -0.09172,0 -0.155928,-0.07338 -0.155928,-0.362303 v -1.233663 h 0.339373 c 0.05962,0 0.201788,0 0.201788,-0.146756 0,-0.146755 -0.142169,-0.146755 -0.201788,-0.146755 h -0.339373 v -0.417336 c 0,-0.14217 -0.02752,-0.201789 -0.201788,-0.201789 h -0.05962 c -0.160514,0 -0.206375,0.04128 -0.206375,0.206375 v 0.41275 h -0.08714 c -0.05962,0 -0.206375,0 -0.206375,0.146755 0,0.146756 0.14217,0.146756 0.201789,0.146756 h 0.07796 v 1.316213 c 0,0.30727 0.08255,0.600781 0.403578,0.600781 0.371475,0 0.692502,-0.210961 0.692502,-0.275167 z"
             style="font-family:'Latin Modern Sans Demi Cond';-inkscape-font-specification:'Latin Modern Sans Demi Cond'"
             id="path73321" />
          <path
             d="m 66.039744,-44.648707 v -1.366661 c 0,-0.366889 -0.114653,-0.642056 -0.587023,-0.642056 -0.366888,0 -0.550333,0.265995 -0.628297,0.435681 h -0.0046 v -1.206147 c 0,-0.142169 -0.02752,-0.201789 -0.201789,-0.201789 h -0.08714 c -0.160514,0 -0.206375,0.04128 -0.206375,0.206375 v 2.770011 c 0,0.160513 0.04127,0.206375 0.206375,0.206375 h 0.100895 c 0.160514,0 0.201789,-0.04586 0.201789,-0.201789 v -1.096081 c 0,-0.417336 0.233891,-0.619125 0.449438,-0.619125 0.192617,0 0.24765,0.110067 0.24765,0.366889 v 1.348317 c 0,0.142169 0.02752,0.201789 0.201789,0.201789 h 0.105481 c 0.160514,0 0.201789,-0.04586 0.201789,-0.201789 z"
             style="font-family:'Latin Modern Sans Demi Cond';-inkscape-font-specification:'Latin Modern Sans Demi Cond'"
             id="path73323" />
          <path
             d="m 68.176871,-45.708099 c 0,-0.628297 -0.293511,-0.972255 -0.825499,-0.972255 -0.403578,0 -0.940153,0.229305 -0.940153,1.137355 0,0.894292 0.545747,1.141942 0.995186,1.141942 0.169686,0 0.311855,-0.03669 0.454025,-0.100895 0.08714,-0.04127 0.288925,-0.155928 0.288925,-0.243064 0,-0.03669 -0.0092,-0.123825 -0.01376,-0.1651 -0.01376,-0.08714 -0.01376,-0.110066 -0.05962,-0.110066 -0.02293,0 -0.03669,0.01376 -0.05962,0.04127 -0.215548,0.256822 -0.4953,0.284339 -0.591609,0.284339 -0.541161,0 -0.541161,-0.678745 -0.541161,-0.816328 h 1.091495 c 0.146755,0 0.201788,-0.0321 0.201788,-0.197203 z m -0.394405,-0.01834 h -0.894292 c 0.01834,-0.3302 0.151342,-0.6604 0.467784,-0.6604 0.398991,0 0.417336,0.426508 0.426508,0.6604 z"
             style="font-family:'Latin Modern Sans Demi Cond';-inkscape-font-specification:'Latin Modern Sans Demi Cond'"
             id="path73325" />
          <path
             d="m 69.708629,-46.405188 v -0.132997 c 0,-0.09631 0,-0.119239 -0.07338,-0.119239 -0.201789,0 -0.467783,0.137584 -0.600781,0.522817 h -0.0046 v -0.302683 c 0,-0.14217 -0.02752,-0.201789 -0.201788,-0.201789 h -0.06421 c -0.160514,0 -0.206375,0.04128 -0.206375,0.206375 v 1.779411 c 0,0.160513 0.04127,0.206375 0.206375,0.206375 h 0.08714 c 0.160514,0 0.201789,-0.04586 0.201789,-0.201789 v -0.926395 c 0,-0.421922 0.256822,-0.68333 0.573264,-0.710847 0.07796,-0.0046 0.08255,-0.0092 0.08255,-0.119239 z"
             style="font-family:'Latin Modern Sans Demi Cond';-inkscape-font-specification:'Latin Modern Sans Demi Cond'"
             id="path73327" />
        </g>
      </g>
    </g>
  </g>
</svg>
