<?xml version="1.0" encoding="UTF-8" standalone="no"?>
<!-- Created with Inkscape (http://www.inkscape.org/) -->

<svg
   width="19.371887mm"
   height="146.017mm"
   viewBox="0 0 19.371887 146.017"
   version="1.1"
   id="svg1316947"
   inkscape:version="1.1.1 (3bf5ae0d25, 2021-09-20)"
   sodipodi:docname="pen_back_datalady.svg"
   xmlns:inkscape="http://www.inkscape.org/namespaces/inkscape"
   xmlns:sodipodi="http://sodipodi.sourceforge.net/DTD/sodipodi-0.dtd"
   xmlns="http://www.w3.org/2000/svg"
   xmlns:svg="http://www.w3.org/2000/svg">
  <sodipodi:namedview
     id="namedview1316949"
     pagecolor="#ffffff"
     bordercolor="#666666"
     borderopacity="1.0"
     inkscape:pageshadow="2"
     inkscape:pageopacity="0.0"
     inkscape:pagecheckerboard="0"
     inkscape:document-units="mm"
     showgrid="false"
     fit-margin-top="0"
     fit-margin-left="0"
     fit-margin-right="0"
     fit-margin-bottom="0"
     inkscape:zoom="1.9506342"
     inkscape:cx="59.211512"
     inkscape:cy="255.81424"
     inkscape:window-width="2560"
     inkscape:window-height="1371"
     inkscape:window-x="0"
     inkscape:window-y="32"
     inkscape:window-maximized="1"
     inkscape:current-layer="text56541" />
  <defs
     id="defs1316944">
    <inkscape:path-effect
       effect="skeletal"
       id="path-effect27441"
       is_visible="true"
       lpeversion="1"
       pattern="m 165.96494,-47.686816 c -0.46836,-2.330714 -2.93354,-3.801041 -5.50611,-3.284078 -2.5726,0.516968 -4.2784,2.825475 -3.81003,5.156176 0.46835,2.330703 2.36681,2.42379 4.9394,1.906836 2.57259,-0.516974 4.8451,-1.44822 4.37674,-3.778934 z"
       copytype="single_stretched"
       prop_scale="0.943279"
       scale_y_rel="false"
       spacing="0"
       normal_offset="0"
       tang_offset="0"
       prop_units="false"
       vertical_pattern="false"
       hide_knot="false"
       fuse_tolerance="0" />
  </defs>
  <g
     inkscape:label="Layer 1"
     inkscape:groupmode="layer"
     id="layer1"
     transform="translate(-143.46973,-117.71366)">
    <g
       id="g1316680"
       transform="translate(107.48366,129.98985)">
      <g
         id="g1300236"
         transform="rotate(180,62.242926,61.03732)">
        <g
           transform="matrix(0.25720727,0.16307411,-0.16307411,0.25720727,31.248617,14.550027)"
           id="g152">
          <path
             id="path27443"
             style="fill:#ff6584;fill-opacity:1;stroke:#ff6584;stroke-width:0.177227;stroke-linecap:butt;stroke-linejoin:miter;stroke-miterlimit:4;stroke-dasharray:none;stroke-opacity:1"
             d="m 147.53643,-51.354727 5.39959,8.033731 v 0 0 l 0.10993,-0.685004 -5.15553,-7.678752 z m 3.78845,-5.291273 a 6.297883,6.2979999 0 0 1 -6.29789,6.298 6.297883,6.2979999 0 0 1 -6.29788,-6.298 6.297883,6.2979999 0 0 1 6.29788,-6.298 6.297883,6.2979999 0 0 1 6.29789,6.298 z" />
        </g>
        <g
           id="g1237"
           transform="matrix(-0.28112967,-0.04164347,-0.04164347,0.28112967,33.164833,0.30378611)">
          <path
             id="circle25800"
             style="fill:#808080;fill-opacity:1;stroke:#808080;stroke-width:0.159647;stroke-opacity:1"
             d="m -176.36836,78.553253 a 0.7832948,0.7832948 0 0 1 -0.7833,0.783295 0.7832948,0.7832948 0 0 1 -0.78329,-0.783295 0.7832948,0.7832948 0 0 1 0.78329,-0.783295 0.7832948,0.7832948 0 0 1 0.7833,0.783295 z" />
          <path
             id="path25802"
             style="fill:#ff6584;fill-opacity:1;stroke:#ff6584;stroke-width:0.171482;stroke-opacity:1"
             d="m 38.261719,107.94531 c -2.102027,-0.002 -4.019958,1.14866 -4.75586,3.06446 -0.404627,1.05337 -0.333342,1.88455 0.08203,2.57617 a 7.3852488,7.3852488 0 0 1 1.933593,-0.29492 7.3852488,7.3852488 0 0 1 6.296875,3.38671 c 0.839981,-0.20944 1.51121,-0.73801 1.898438,-1.74609 0.981215,-2.55441 -0.510594,-5.5029 -3.330078,-6.58594 -0.704877,-0.27076 -1.424325,-0.39982 -2.125,-0.40039 z"
             transform="matrix(-0.92093602,-0.13641738,-0.13641738,0.92093602,-128.01709,-23.813802)" />
          <path
             id="ellipse25804"
             style="fill:#808080;stroke:#808080;stroke-width:0.171482;stroke-opacity:1"
             d="m 28.888672,110.5957 a 3.6926277,1.1592263 77.508072 0 0 -0.332031,3.85547 3.6926277,1.1592263 77.508072 0 0 0.828125,2.35156 7.3852488,7.3852488 0 0 0 -1.146485,4.01563 7.3852488,7.3852488 0 0 0 3.09375,5.90625 l -0.36914,2.49023 a 1.8696857,0.70113269 8.4258978 0 0 -1.580079,0.45313 1.8696857,0.70113269 8.4258978 0 0 1.746094,0.96875 1.8696857,0.70113269 8.4258978 0 0 1.939453,-0.375 h 0.0059 l 0.0059,-0.0371 a 1.8696857,0.70113269 8.4258978 0 0 0.002,-0.008 1.8696857,0.70113269 8.4258978 0 0 0,-0.008 l 0.361328,-2.43554 a 7.3852488,7.3852488 0 0 0 1.626953,0.28515 l 0.900391,2.06641 a 0.70113269,1.8696857 66.375281 0 0 -1.097656,1.2207 0.70113269,1.8696857 66.375281 0 0 1.994141,-0.10742 0.70113269,1.8696857 66.375281 0 0 1.43164,-1.39258 0.70113269,1.8696857 66.375281 0 0 -0.03711,-0.0351 l 0.01953,-0.008 -0.84375,-1.92773 a 7.3852488,7.3852488 0 0 0 5.570312,-7.25977 7.3852488,7.3852488 0 0 0 -0.05469,-0.58007 1.1592263,3.6926275 73.051637 0 0 1.738281,-0.38086 1.1592263,3.6926275 73.051637 0 0 3.195313,-2.18555 1.1592263,3.6926275 73.051637 0 0 -3.871094,-0.0312 1.1592263,3.6926275 73.051637 0 0 -1.533203,0.59375 7.3852488,7.3852488 0 0 0 -6.960938,-4.69922 7.3852488,7.3852488 0 0 0 -4.527343,1.65235 3.6926277,1.1592263 77.508072 0 0 -0.173829,-1.03516 3.6926277,1.1592263 77.508072 0 0 -1.93164,-3.35352 z m 7.59375,4.47657 a 2.5240724,2.5240724 0 0 1 0.359375,0.0371 2.5240724,2.5240724 0 0 1 2.041015,2.92773 2.5240724,2.5240724 0 0 1 -2.927734,2.04297 2.5240724,2.5240724 0 0 1 -2.041016,-2.92774 2.5240724,2.5240724 0 0 1 2.56836,-2.08007 z m -4.431641,5.57226 c 0.604588,-0.0259 2.044619,0.72062 3.640625,0.95703 2.042909,0.30262 3.922324,0.32208 3.816406,1.03711 -0.105915,0.71502 -2.156299,1.8534 -4.199218,1.55078 -2.042898,-0.30261 -3.660603,-2.59943 -3.554688,-3.31445 0.02317,-0.15641 0.127591,-0.22322 0.296875,-0.23047 z"
             transform="matrix(-0.92093602,-0.13641738,-0.13641738,0.92093602,-128.01709,-23.813802)" />
        </g>
      </g>
      <g
         aria-label="4b825dc642cb6eb9a060e54bf8d69288fbee4904"
         transform="rotate(89.557642)"
         id="text56541"
         style="font-size:4.23333px;line-height:1.25;font-family:'Amiri Quran';-inkscape-font-specification:'Amiri Quran';text-align:center;letter-spacing:0px;word-spacing:0px;text-anchor:middle;stroke-width:0.264583">
        <g
           aria-label="DataLady"
           transform="rotate(0.74481618)"
           id="text73698"
           style="font-size:4.58611px;stroke-width:0.0700042"
           inkscape:transform-center-x="-0.83552818"
           inkscape:transform-center-y="-0.011947205">
          <path
             d="m 36.621037,-45.751364 c 0,-0.476956 -0.09172,-0.834672 -0.293511,-1.123597 -0.233892,-0.339373 -0.632883,-0.490714 -1.031875,-0.490714 h -0.999772 c -0.160514,0 -0.206375,0.04128 -0.206375,0.206375 v 2.77001 c 0,0.160514 0.04127,0.206375 0.206375,0.206375 h 1.004358 c 0.321028,0 0.706261,-0.09631 0.958497,-0.389819 0.284339,-0.321028 0.362303,-0.747536 0.362303,-1.17863 z m -0.545747,0 c 0,0.366888 0,1.224491 -0.926394,1.224491 h -0.513645 v -2.494844 h 0.509059 c 0.93098,0 0.93098,0.898878 0.93098,1.270353 z"
             style="font-family:'Latin Modern Sans Demi Cond';-inkscape-font-specification:'Latin Modern Sans Demi Cond'"
             id="path77146" />
          <path
             d="m 38.744405,-44.384704 v -1.316213 c 0,-0.426508 -0.243064,-0.715433 -0.797983,-0.715433 -0.256823,0 -0.440267,0.05045 -0.628297,0.142169 -0.08714,0.04586 -0.110067,0.05503 -0.110067,0.105481 0,0.0321 0.0092,0.128411 0.01376,0.1651 0.0092,0.10548 0.01376,0.132997 0.05962,0.132997 0.02293,0 0.02752,-0.0046 0.07338,-0.04586 0.188031,-0.183445 0.398992,-0.229306 0.573264,-0.229306 0.100895,0 0.30727,0 0.30727,0.449439 v 0.09172 c 0,0.07796 -0.0046,0.08255 -0.05045,0.08714 -0.197202,0.0092 -1.146527,0.05045 -1.146527,0.729192 0,0.3302 0.243064,0.651227 0.60078,0.651227 0.3302,0 0.536575,-0.229305 0.609953,-0.362302 v 0.114652 c 0,0.14217 0.02752,0.201789 0.201789,0.201789 h 0.09172 c 0.160514,0 0.201789,-0.04586 0.201789,-0.201789 z m -0.509058,-0.509058 c 0,0.417336 -0.3302,0.463197 -0.408164,0.463197 -0.183445,0 -0.30727,-0.174272 -0.30727,-0.366888 0,-0.467784 0.4953,-0.545748 0.715434,-0.559506 z"
             style="font-family:'Latin Modern Sans Demi Cond';-inkscape-font-specification:'Latin Modern Sans Demi Cond'"
             id="path77148" />
          <path
             d="m 40.409159,-44.41222 c 0,-0.01835 -0.02752,-0.110067 -0.0321,-0.132997 -0.02293,-0.07796 -0.0321,-0.09631 -0.06879,-0.09631 -0.02293,0 -0.03669,0.0092 -0.06879,0.05503 -0.05045,0.05962 -0.1651,0.128411 -0.288925,0.128411 -0.09172,0 -0.155928,-0.07338 -0.155928,-0.362303 v -1.233664 h 0.339372 c 0.05962,0 0.201789,0 0.201789,-0.146755 0,-0.146756 -0.14217,-0.146756 -0.201789,-0.146756 H 39.79462 v -0.417336 c 0,-0.142169 -0.02752,-0.201789 -0.201789,-0.201789 h -0.05962 c -0.160514,0 -0.206375,0.04127 -0.206375,0.206375 v 0.41275 H 39.2397 c -0.05962,0 -0.206374,0 -0.206374,0.146756 0,0.146755 0.142169,0.146755 0.201788,0.146755 h 0.07796 v 1.316214 c 0,0.307269 0.08255,0.60078 0.403578,0.60078 0.371475,0 0.692503,-0.210961 0.692503,-0.275166 z"
             style="font-family:'Latin Modern Sans Demi Cond';-inkscape-font-specification:'Latin Modern Sans Demi Cond'"
             id="path77150" />
          <path
             d="m 42.408697,-44.384704 v -1.316213 c 0,-0.426508 -0.243064,-0.715433 -0.797983,-0.715433 -0.256822,0 -0.440267,0.05045 -0.628297,0.142169 -0.08714,0.04586 -0.110067,0.05503 -0.110067,0.105481 0,0.0321 0.0092,0.128411 0.01376,0.1651 0.0092,0.10548 0.01376,0.132997 0.05962,0.132997 0.02293,0 0.02752,-0.0046 0.07338,-0.04586 0.18803,-0.183445 0.398991,-0.229306 0.573264,-0.229306 0.100894,0 0.307269,0 0.307269,0.449439 v 0.09172 c 0,0.07796 -0.0046,0.08255 -0.05045,0.08714 -0.197203,0.0092 -1.146528,0.05045 -1.146528,0.729192 0,0.3302 0.243064,0.651227 0.600781,0.651227 0.3302,0 0.536574,-0.229305 0.609952,-0.362302 v 0.114652 c 0,0.14217 0.02752,0.201789 0.201789,0.201789 h 0.09172 c 0.160514,0 0.201789,-0.04586 0.201789,-0.201789 z m -0.509058,-0.509058 c 0,0.417336 -0.3302,0.463197 -0.408164,0.463197 -0.183444,0 -0.307269,-0.174272 -0.307269,-0.366888 0,-0.467784 0.4953,-0.545748 0.715433,-0.559506 z"
             style="font-family:'Latin Modern Sans Demi Cond';-inkscape-font-specification:'Latin Modern Sans Demi Cond'"
             id="path77152" />
          <path
             d="m 44.784298,-44.38929 c 0,-0.10548 0,-0.210961 -0.192617,-0.210961 l -1.045633,0.01835 v -2.58198 c 0,-0.14217 -0.02752,-0.201789 -0.201789,-0.201789 h -0.151341 c -0.160514,0 -0.206375,0.04128 -0.206375,0.206375 v 2.77001 c 0,0.160514 0.04128,0.206375 0.206375,0.206375 h 1.389591 c 0.183445,0 0.201789,-0.06879 0.201789,-0.206375 z"
             style="font-family:'Latin Modern Sans Demi Cond';-inkscape-font-specification:'Latin Modern Sans Demi Cond'"
             id="path77154" />
          <path
             d="m 46.843462,-44.384704 v -1.316213 c 0,-0.426508 -0.243064,-0.715433 -0.797984,-0.715433 -0.256822,0 -0.440266,0.05045 -0.628297,0.142169 -0.08714,0.04586 -0.110066,0.05503 -0.110066,0.105481 0,0.0321 0.0092,0.128411 0.01376,0.1651 0.0092,0.10548 0.01376,0.132997 0.05962,0.132997 0.02293,0 0.02752,-0.0046 0.07338,-0.04586 0.188031,-0.183445 0.398992,-0.229306 0.573264,-0.229306 0.100894,0 0.307269,0 0.307269,0.449439 v 0.09172 c 0,0.07796 -0.0046,0.08255 -0.05045,0.08714 -0.197203,0.0092 -1.146527,0.05045 -1.146527,0.729192 0,0.3302 0.243063,0.651227 0.60078,0.651227 0.3302,0 0.536575,-0.229305 0.609953,-0.362302 v 0.114652 c 0,0.14217 0.02752,0.201789 0.201788,0.201789 h 0.09172 c 0.160514,0 0.201789,-0.04586 0.201789,-0.201789 z m -0.509059,-0.509058 c 0,0.417336 -0.3302,0.463197 -0.408163,0.463197 -0.183445,0 -0.30727,-0.174272 -0.30727,-0.366888 0,-0.467784 0.4953,-0.545748 0.715433,-0.559506 z"
             style="font-family:'Latin Modern Sans Demi Cond';-inkscape-font-specification:'Latin Modern Sans Demi Cond'"
             id="path77156" />
          <path
             d="m 49.003515,-44.384704 v -2.779182 c 0,-0.14217 -0.02752,-0.201789 -0.201789,-0.201789 h -0.09172 c -0.160514,0 -0.201789,0.04586 -0.201789,0.201789 v 0.995186 c -0.06879,-0.08255 -0.229306,-0.22472 -0.481542,-0.22472 -0.10548,0 -0.426508,0.02293 -0.632883,0.321028 -0.197203,0.288925 -0.197203,0.6604 -0.197203,0.807155 0,0.123825 0,0.486128 0.160514,0.756708 0.197203,0.325614 0.481542,0.371475 0.646642,0.371475 0.307269,0 0.476955,-0.224719 0.490713,-0.24765 0,0.14217 0.02752,0.201789 0.201789,0.201789 h 0.105481 c 0.160514,0 0.201789,-0.04586 0.201789,-0.201789 z m -0.509059,-0.261408 c -0.07338,0.114653 -0.192616,0.215547 -0.357716,0.215547 -0.431094,0 -0.431094,-0.545747 -0.431094,-0.830086 0,-0.284338 0,-0.839258 0.476955,-0.839258 0.192617,0 0.302683,0.146756 0.311855,0.155928 z"
             style="font-family:'Latin Modern Sans Demi Cond';-inkscape-font-specification:'Latin Modern Sans Demi Cond'"
             id="path77158" />
          <path
             d="m 51.136055,-46.232906 c 0,-0.114653 -0.100894,-0.114653 -0.192616,-0.114653 -0.132997,0 -0.220133,0 -0.270581,0.183445 l -0.169686,0.591608 c -0.142169,0.490714 -0.178858,0.738364 -0.18803,0.84843 -0.0046,-0.100894 -0.0092,-0.307269 -0.380647,-1.288697 -0.105481,-0.284338 -0.123825,-0.334786 -0.334786,-0.334786 h -0.05503 c -0.06879,0 -0.169686,0 -0.169686,0.110067 0,0 0,0.02293 0.02293,0.08255 l 0.729191,1.907822 c 0.01835,0.05503 0.01835,0.06879 0.01835,0.06879 0,0.04586 -0.07796,0.275167 -0.110067,0.325614 -0.03669,0.06421 -0.123825,0.155928 -0.275167,0.155928 -0.0321,0 -0.137583,-0.0046 -0.265994,-0.06421 -0.02293,-0.0092 -0.0321,-0.01376 -0.0321,-0.01376 -0.0321,0 -0.05503,0.01835 -0.05503,0.06421 0,0.03669 0.01834,0.275166 0.04127,0.293511 0.03669,0.02752 0.215547,0.04586 0.307269,0.04586 0.357717,0 0.605367,-0.261409 0.701675,-0.57785 l 0.655814,-2.196747 c 0.02293,-0.06879 0.02293,-0.08714 0.02293,-0.08714 z"
             style="font-family:'Latin Modern Sans Demi Cond';-inkscape-font-specification:'Latin Modern Sans Demi Cond'"
             id="path77160" />
        </g>
      </g>
    </g>
  </g>
</svg>
