<?xml version="1.0" encoding="UTF-8" standalone="no"?>
<!-- Created with Inkscape (http://www.inkscape.org/) -->

<svg
   width="19.371887mm"
   height="146.017mm"
   viewBox="0 0 19.371887 146.017"
   version="1.1"
   id="svg1316947"
   inkscape:version="1.1.1 (3bf5ae0d25, 2021-09-20)"
   sodipodi:docname="testpen_back.svg"
   xmlns:inkscape="http://www.inkscape.org/namespaces/inkscape"
   xmlns:sodipodi="http://sodipodi.sourceforge.net/DTD/sodipodi-0.dtd"
   xmlns="http://www.w3.org/2000/svg"
   xmlns:svg="http://www.w3.org/2000/svg">
  <sodipodi:namedview
     id="namedview1316949"
     pagecolor="#ffffff"
     bordercolor="#666666"
     borderopacity="1.0"
     inkscape:pageshadow="2"
     inkscape:pageopacity="0.0"
     inkscape:pagecheckerboard="0"
     inkscape:document-units="mm"
     showgrid="false"
     fit-margin-top="0"
     fit-margin-left="0"
     fit-margin-right="0"
     fit-margin-bottom="0"
     inkscape:zoom="1.9506342"
     inkscape:cx="59.211512"
     inkscape:cy="255.81424"
     inkscape:window-width="2560"
     inkscape:window-height="1371"
     inkscape:window-x="0"
     inkscape:window-y="1472"
     inkscape:window-maximized="1"
     inkscape:current-layer="g1316680" />
  <defs
     id="defs1316944">
    <inkscape:path-effect
       effect="skeletal"
       id="path-effect27441"
       is_visible="true"
       lpeversion="1"
       pattern="m 165.96494,-47.686816 c -0.46836,-2.330714 -2.93354,-3.801041 -5.50611,-3.284078 -2.5726,0.516968 -4.2784,2.825475 -3.81003,5.156176 0.46835,2.330703 2.36681,2.42379 4.9394,1.906836 2.57259,-0.516974 4.8451,-1.44822 4.37674,-3.778934 z"
       copytype="single_stretched"
       prop_scale="0.943279"
       scale_y_rel="false"
       spacing="0"
       normal_offset="0"
       tang_offset="0"
       prop_units="false"
       vertical_pattern="false"
       hide_knot="false"
       fuse_tolerance="0" />
  </defs>
  <g
     inkscape:label="Layer 1"
     inkscape:groupmode="layer"
     id="layer1"
     transform="translate(-143.46973,-117.71366)">
    <g
       id="g1316680"
       transform="translate(107.48366,129.98985)">
      <g
         id="g1300236"
         transform="rotate(180,62.083657,61.03732)">
        <g
           transform="matrix(0.25720727,0.16307411,-0.16307411,0.25720727,31.248617,14.550027)"
           id="g152">
          <path
             id="path27443"
             style="fill:#ff6584;fill-opacity:1;stroke:#ff6584;stroke-width:0.177227;stroke-linecap:butt;stroke-linejoin:miter;stroke-miterlimit:4;stroke-dasharray:none;stroke-opacity:1"
             d="m 147.53643,-51.354727 5.39959,8.033731 v 0 0 l 0.10993,-0.685004 -5.15553,-7.678752 z m 3.78845,-5.291273 a 6.297883,6.2979999 0 0 1 -6.29789,6.298 6.297883,6.2979999 0 0 1 -6.29788,-6.298 6.297883,6.2979999 0 0 1 6.29788,-6.298 6.297883,6.2979999 0 0 1 6.29789,6.298 z" />
        </g>
        <g
           id="g1237"
           transform="matrix(-0.28112967,-0.04164347,-0.04164347,0.28112967,33.164833,0.30378611)">
          <path
             id="circle25800"
             style="fill:#808080;fill-opacity:1;stroke:#808080;stroke-width:0.159647;stroke-opacity:1"
             d="m -176.36836,78.553253 a 0.7832948,0.7832948 0 0 1 -0.7833,0.783295 0.7832948,0.7832948 0 0 1 -0.78329,-0.783295 0.7832948,0.7832948 0 0 1 0.78329,-0.783295 0.7832948,0.7832948 0 0 1 0.7833,0.783295 z" />
          <path
             id="path25802"
             style="fill:#ff6584;fill-opacity:1;stroke:#ff6584;stroke-width:0.171482;stroke-opacity:1"
             d="m 38.261719,107.94531 c -2.102027,-0.002 -4.019958,1.14866 -4.75586,3.06446 -0.404627,1.05337 -0.333342,1.88455 0.08203,2.57617 a 7.3852488,7.3852488 0 0 1 1.933593,-0.29492 7.3852488,7.3852488 0 0 1 6.296875,3.38671 c 0.839981,-0.20944 1.51121,-0.73801 1.898438,-1.74609 0.981215,-2.55441 -0.510594,-5.5029 -3.330078,-6.58594 -0.704877,-0.27076 -1.424325,-0.39982 -2.125,-0.40039 z"
             transform="matrix(-0.92093602,-0.13641738,-0.13641738,0.92093602,-128.01709,-23.813802)" />
          <path
             id="ellipse25804"
             style="fill:#808080;stroke:#808080;stroke-width:0.171482;stroke-opacity:1"
             d="m 28.888672,110.5957 a 3.6926277,1.1592263 77.508072 0 0 -0.332031,3.85547 3.6926277,1.1592263 77.508072 0 0 0.828125,2.35156 7.3852488,7.3852488 0 0 0 -1.146485,4.01563 7.3852488,7.3852488 0 0 0 3.09375,5.90625 l -0.36914,2.49023 a 1.8696857,0.70113269 8.4258978 0 0 -1.580079,0.45313 1.8696857,0.70113269 8.4258978 0 0 1.746094,0.96875 1.8696857,0.70113269 8.4258978 0 0 1.939453,-0.375 h 0.0059 l 0.0059,-0.0371 a 1.8696857,0.70113269 8.4258978 0 0 0.002,-0.008 1.8696857,0.70113269 8.4258978 0 0 0,-0.008 l 0.361328,-2.43554 a 7.3852488,7.3852488 0 0 0 1.626953,0.28515 l 0.900391,2.06641 a 0.70113269,1.8696857 66.375281 0 0 -1.097656,1.2207 0.70113269,1.8696857 66.375281 0 0 1.994141,-0.10742 0.70113269,1.8696857 66.375281 0 0 1.43164,-1.39258 0.70113269,1.8696857 66.375281 0 0 -0.03711,-0.0351 l 0.01953,-0.008 -0.84375,-1.92773 a 7.3852488,7.3852488 0 0 0 5.570312,-7.25977 7.3852488,7.3852488 0 0 0 -0.05469,-0.58007 1.1592263,3.6926275 73.051637 0 0 1.738281,-0.38086 1.1592263,3.6926275 73.051637 0 0 3.195313,-2.18555 1.1592263,3.6926275 73.051637 0 0 -3.871094,-0.0312 1.1592263,3.6926275 73.051637 0 0 -1.533203,0.59375 7.3852488,7.3852488 0 0 0 -6.960938,-4.69922 7.3852488,7.3852488 0 0 0 -4.527343,1.65235 3.6926277,1.1592263 77.508072 0 0 -0.173829,-1.03516 3.6926277,1.1592263 77.508072 0 0 -1.93164,-3.35352 z m 7.59375,4.47657 a 2.5240724,2.5240724 0 0 1 0.359375,0.0371 2.5240724,2.5240724 0 0 1 2.041015,2.92773 2.5240724,2.5240724 0 0 1 -2.927734,2.04297 2.5240724,2.5240724 0 0 1 -2.041016,-2.92774 2.5240724,2.5240724 0 0 1 2.56836,-2.08007 z m -4.431641,5.57226 c 0.604588,-0.0259 2.044619,0.72062 3.640625,0.95703 2.042909,0.30262 3.922324,0.32208 3.816406,1.03711 -0.105915,0.71502 -2.156299,1.8534 -4.199218,1.55078 -2.042898,-0.30261 -3.660603,-2.59943 -3.554688,-3.31445 0.02317,-0.15641 0.127591,-0.22322 0.296875,-0.23047 z"
             transform="matrix(-0.92093602,-0.13641738,-0.13641738,0.92093602,-128.01709,-23.813802)" />
        </g>
      </g>
      <g
         aria-label="4b825dc642cb6eb9a060e54bf8d69288fbee4904"
         transform="rotate(89.557642)"
         id="text56541"
         style="font-size:4.23333px;line-height:1.25;font-family:'Amiri Quran';-inkscape-font-specification:'Amiri Quran';text-align:center;letter-spacing:0px;word-spacing:0px;text-anchor:middle;stroke-width:0.264583">
        <path
           d="m 2.8705696,-43.912013 c 0,-0.173567 -0.097367,-0.173567 -0.1862665,-0.173567 H 2.5319032 v -1.706032 c 0,-0.143933 -0.0381,-0.186266 -0.1862665,-0.186266 H 2.1255036 c -0.1015999,0 -0.1312332,0.0042 -0.1777999,0.1016 l -0.8339659,1.731431 c -0.029633,0.05927 -0.029633,0.06773 -0.029633,0.1397 v 0.0762 c 0,0.131233 0.0254,0.186267 0.1862665,0.186267 h 0.8170326 v 0.516466 c 0,0.131233 0.0254,0.186266 0.1862665,0.186266 h 0.071967 c 0.1481666,0 0.1862665,-0.04233 0.1862665,-0.186266 v -0.516466 h 0.1523999 c 0.084667,0 0.1862665,0 0.1862665,-0.169333 z M 2.1128036,-44.08558 H 1.4566375 c 0.067733,-0.148167 0.3301997,-0.668866 0.5249329,-1.142999 0.055033,-0.131233 0.1269999,-0.3175 0.1312332,-0.3683 z"
           style="font-family:'Latin Modern Sans Demi Cond';-inkscape-font-specification:'Latin Modern Sans Demi Cond'"
           id="path66166" />
        <path
           d="m 4.8898614,-44.043247 c 0,-0.402166 -0.1100665,-1.037165 -0.7154327,-1.037165 -0.2582331,0 -0.4275663,0.152399 -0.4952996,0.232833 v -0.944033 c 0,-0.131233 -0.0254,-0.186266 -0.1862665,-0.186266 h -0.080433 c -0.1481665,0 -0.1904998,0.0381 -0.1904998,0.190499 v 2.556932 c 0,0.148166 0.0381,0.190499 0.1904998,0.190499 h 0.093133 c 0.0762,0 0.1820332,0 0.1862665,-0.148166 0.0635,0.08043 0.1947332,0.1905 0.4021663,0.1905 0.2116665,0 0.461433,-0.08043 0.6265328,-0.3302 0.1693332,-0.254 0.1693332,-0.592666 0.1693332,-0.715433 z m -0.4698996,-0.0042 c 0,0.2667 0,0.778933 -0.4402663,0.778933 -0.1608665,0 -0.2539997,-0.1143 -0.2878664,-0.169334 v -1.130299 c 0,-0.0762 0,-0.101599 0.1100666,-0.177799 0.0762,-0.04657 0.1608665,-0.0635 0.2201331,-0.0635 0.397933,0 0.397933,0.503766 0.397933,0.761999 z"
           style="font-family:'Latin Modern Sans Demi Cond';-inkscape-font-specification:'Latin Modern Sans Demi Cond'"
           id="path66168" />
        <path
           d="m 6.8668259,-43.88238 c 0,-0.381 -0.1650998,-0.639233 -0.4910662,-0.745066 0.359833,-0.1143 0.4360329,-0.4064 0.4360329,-0.630766 0,-0.491067 -0.2666997,-0.8001 -0.7789326,-0.8001 -0.5206996,0 -0.7789327,0.3175 -0.7789327,0.8001 0,0.241299 0.084667,0.516466 0.4360329,0.630766 -0.3767663,0.122766 -0.4910662,0.431799 -0.4910662,0.745066 0,0.613833 0.3301997,0.922866 0.833966,0.922866 0.5206995,0 0.8339659,-0.325967 0.8339659,-0.922866 z m -0.4910662,-1.371599 c 0,0.198967 0,0.491066 -0.3428997,0.491066 -0.3428998,0 -0.3428998,-0.292099 -0.3428998,-0.491066 0,-0.211666 0,-0.486833 0.3428998,-0.486833 0.3428997,0 0.3428997,0.2794 0.3428997,0.486833 z m 0.00847,1.363132 c 0,0.249767 0,0.592666 -0.3513663,0.592666 -0.3513664,0 -0.3513664,-0.342899 -0.3513664,-0.592666 0,-0.237066 0,-0.601133 0.3513664,-0.601133 0.3513663,0 0.3513663,0.364067 0.3513663,0.601133 z"
           style="font-family:'Latin Modern Sans Demi Cond';-inkscape-font-specification:'Latin Modern Sans Demi Cond'"
           id="path66170" />
        <path
           d="m 8.8480178,-43.226214 v -0.0254 c 0,-0.186267 -0.059267,-0.186267 -0.2963331,-0.186267 l -0.2624665,0.0042 H 7.772752 c -0.046567,0 -0.055033,0 -0.084667,0.0042 l 0.410633,-0.465666 c 0.5333996,-0.5715 0.7492994,-0.804333 0.7492994,-1.219199 0,-0.4953 -0.3090331,-0.944033 -0.859366,-0.944033 -0.2243665,0 -0.4063996,0.0762 -0.5418662,0.220134 -0.1735665,0.190499 -0.2370665,0.452966 -0.2370665,0.465666 0,0.0254 0.0635,0.1143 0.1354666,0.220133 0.029633,0.0381 0.0381,0.0508 0.0635,0.0508 0.0381,0 0.042333,-0.02117 0.059267,-0.08043 0.059267,-0.249767 0.1608665,-0.512233 0.4614329,-0.512233 0.4190997,0 0.4317996,0.516466 0.4317996,0.584199 0,0.3048 -0.1650998,0.5969 -0.359833,0.842433 l -0.7238994,0.910166 c -0.0381,0.04233 -0.0381,0.0508 -0.0381,0.127 0,0.148166 0.0381,0.190499 0.1904998,0.190499 h 1.231899 c 0.1481665,0 0.1862665,-0.04233 0.1862665,-0.186266 z"
           style="font-family:'Latin Modern Sans Demi Cond';-inkscape-font-specification:'Latin Modern Sans Demi Cond'"
           id="path66172" />
        <path
           d="m 10.858843,-43.97128 c 0,-0.2032 -0.02117,-0.465666 -0.186267,-0.694266 -0.110066,-0.1524 -0.321733,-0.270933 -0.584199,-0.270933 -0.1016,0 -0.2031999,0.02117 -0.2920998,0.0635 v -0.740833 H 10.53711 c 0.135466,0 0.186266,-0.02963 0.186266,-0.182033 0,-0.148167 -0.04657,-0.182033 -0.186266,-0.182033 H 9.5422774 c -0.1566332,0 -0.1904999,0.04657 -0.1904999,0.194733 v 1.261532 c 0,0.1016 0.00423,0.194733 0.1820332,0.194733 0.084667,0 0.1227666,-0.0085 0.1650999,-0.08467 0.042333,-0.06773 0.1481665,-0.254 0.3809994,-0.254 0.262467,0 0.262467,0.414866 0.262467,0.681566 0,0.2794 0,0.685799 -0.4106333,0.685799 -0.0381,0 -0.3767663,0 -0.5333995,-0.376766 -0.00423,-0.01693 -0.016933,-0.0381 -0.046567,-0.0381 -0.055033,0 -0.1608665,0.2667 -0.1608665,0.2667 0,0.04657 0.2285998,0.486833 0.7535327,0.486833 0.3259663,0 0.5503333,-0.127 0.6730993,-0.258233 0.232833,-0.258233 0.2413,-0.601133 0.2413,-0.753533 z"
           style="font-family:'Latin Modern Sans Demi Cond';-inkscape-font-specification:'Latin Modern Sans Demi Cond'"
           id="path66174" />
        <path
           d="m 12.865435,-43.226214 v -2.565398 c 0,-0.131233 -0.0254,-0.186266 -0.186267,-0.186266 h -0.08467 c -0.148167,0 -0.186267,0.04233 -0.186267,0.186266 v 0.918633 c -0.0635,-0.0762 -0.211666,-0.207433 -0.444499,-0.207433 -0.09737,0 -0.3937,0.02117 -0.5842,0.296333 -0.182033,0.266699 -0.182033,0.609599 -0.182033,0.745066 0,0.1143 0,0.448733 0.148166,0.698499 0.182034,0.300566 0.4445,0.3429 0.5969,0.3429 0.283633,0 0.440266,-0.207433 0.452966,-0.2286 0,0.131233 0.0254,0.186266 0.186267,0.186266 h 0.09737 c 0.148167,0 0.186267,-0.04233 0.186267,-0.186266 z m -0.4699,-0.2413 c -0.06773,0.105833 -0.1778,0.198967 -0.3302,0.198967 -0.397933,0 -0.397933,-0.503767 -0.397933,-0.766233 0,-0.262466 0,-0.774699 0.440267,-0.774699 0.1778,0 0.279399,0.135466 0.287866,0.143933 z"
           style="font-family:'Latin Modern Sans Demi Cond';-inkscape-font-specification:'Latin Modern Sans Demi Cond'"
           id="path66176" />
        <path
           d="m 14.778899,-43.302414 c 0,-0.02963 -0.0085,-0.118533 -0.0127,-0.1524 -0.0085,-0.09737 -0.0127,-0.118533 -0.05503,-0.118533 -0.02117,0 -0.02963,0.0042 -0.05503,0.0381 -0.05503,0.05503 -0.220133,0.2413 -0.5334,0.2413 -0.410633,0 -0.410633,-0.5334 -0.410633,-0.753533 0,-0.309033 0.02117,-0.757766 0.423333,-0.757766 0.232833,0 0.334433,0.05927 0.4699,0.1651 0.0381,0.0381 0.04657,0.0381 0.05927,0.0381 0.0381,0 0.04233,-0.02117 0.05927,-0.118533 0.0042,-0.02117 0.02963,-0.143934 0.02963,-0.156634 0,-0.0381 -0.0127,-0.04233 -0.07197,-0.0762 -0.1651,-0.09737 -0.2794,-0.148166 -0.550333,-0.148166 -0.5842,0 -0.888999,0.389466 -0.888999,1.058332 0,0.131234 0,0.499533 0.224366,0.7747 0.169333,0.2032 0.427566,0.270933 0.6477,0.270933 0.0762,0 0.241299,-0.0085 0.410633,-0.0889 0,0 0.253999,-0.127 0.253999,-0.2159 z"
           style="font-family:'Latin Modern Sans Demi Cond';-inkscape-font-specification:'Latin Modern Sans Demi Cond'"
           id="path66178" />
        <path
           d="m 16.73046,-44.026313 c 0,-0.220133 -0.0042,-0.448733 -0.143933,-0.6858 -0.118533,-0.198966 -0.283633,-0.334433 -0.567266,-0.334433 -0.2413,0 -0.389467,0.148167 -0.4699,0.351367 0.0127,-0.364067 0.04233,-1.045633 0.579966,-1.045633 0.08467,0 0.173567,0.02117 0.2413,0.0635 0.0508,0.02963 0.06773,0.02963 0.06773,0.02963 0.04657,0 0.04657,-0.04233 0.04657,-0.110066 v -0.1016 c 0,-0.09313 0,-0.105833 -0.131233,-0.156633 -0.1016,-0.04233 -0.194733,-0.04233 -0.237067,-0.04233 -0.283633,0 -0.609599,0.127 -0.817032,0.4572 -0.237067,0.389466 -0.237067,0.872066 -0.237067,1.126066 0,0.372533 0,1.515532 0.846666,1.515532 0.198967,0 0.427566,-0.04657 0.605366,-0.2794 0.198967,-0.258233 0.2159,-0.4826 0.2159,-0.787399 z m -0.486833,0 c 0,0.338666 0,0.728132 -0.338666,0.728132 -0.313267,0 -0.347133,-0.486833 -0.347133,-0.804332 0,-0.4699 0.143933,-0.6731 0.364066,-0.6731 0.321733,0 0.321733,0.402167 0.321733,0.7493 z"
           style="font-family:'Latin Modern Sans Demi Cond';-inkscape-font-specification:'Latin Modern Sans Demi Cond'"
           id="path66180" />
        <path
           d="m 18.800551,-43.912013 c 0,-0.173567 -0.09737,-0.173567 -0.186267,-0.173567 h -0.1524 v -1.706032 c 0,-0.143933 -0.0381,-0.186266 -0.186266,-0.186266 h -0.220133 c -0.1016,0 -0.131233,0.0042 -0.1778,0.1016 l -0.833966,1.731431 c -0.02963,0.05927 -0.02963,0.06773 -0.02963,0.1397 v 0.0762 c 0,0.131233 0.0254,0.186267 0.186266,0.186267 h 0.817033 v 0.516466 c 0,0.131233 0.0254,0.186266 0.186266,0.186266 h 0.07197 c 0.148167,0 0.186266,-0.04233 0.186266,-0.186266 v -0.516466 h 0.1524 c 0.08467,0 0.186267,0 0.186267,-0.169333 z m -0.757766,-0.173567 h -0.656166 c 0.06773,-0.148167 0.330199,-0.668866 0.524933,-1.142999 0.05503,-0.131233 0.126999,-0.3175 0.131233,-0.3683 z"
           style="font-family:'Latin Modern Sans Demi Cond';-inkscape-font-specification:'Latin Modern Sans Demi Cond'"
           id="path66182" />
        <path
           d="m 20.722477,-43.226214 v -0.0254 c 0,-0.186267 -0.05927,-0.186267 -0.296333,-0.186267 l -0.262466,0.0042 h -0.516467 c -0.04657,0 -0.05503,0 -0.08467,0.0042 l 0.410633,-0.465666 c 0.533399,-0.5715 0.749299,-0.804333 0.749299,-1.219199 0,-0.4953 -0.309033,-0.944033 -0.859366,-0.944033 -0.224366,0 -0.4064,0.0762 -0.541866,0.220134 -0.173567,0.190499 -0.237067,0.452966 -0.237067,0.465666 0,0.0254 0.0635,0.1143 0.135467,0.220133 0.02963,0.0381 0.0381,0.0508 0.0635,0.0508 0.0381,0 0.04233,-0.02117 0.05927,-0.08043 0.05927,-0.249767 0.160866,-0.512233 0.461432,-0.512233 0.4191,0 0.4318,0.516466 0.4318,0.584199 0,0.3048 -0.1651,0.5969 -0.359833,0.842433 l -0.723899,0.910166 c -0.0381,0.04233 -0.0381,0.0508 -0.0381,0.127 0,0.148166 0.0381,0.190499 0.1905,0.190499 h 1.231899 c 0.148166,0 0.186266,-0.04233 0.186266,-0.186266 z"
           style="font-family:'Latin Modern Sans Demi Cond';-inkscape-font-specification:'Latin Modern Sans Demi Cond'"
           id="path66184" />
        <path
           d="m 22.597835,-43.302414 c 0,-0.02963 -0.0085,-0.118533 -0.0127,-0.1524 -0.0085,-0.09737 -0.0127,-0.118533 -0.05503,-0.118533 -0.02117,0 -0.02963,0.0042 -0.05503,0.0381 -0.05503,0.05503 -0.220133,0.2413 -0.533399,0.2413 -0.410633,0 -0.410633,-0.5334 -0.410633,-0.753533 0,-0.309033 0.02117,-0.757766 0.423333,-0.757766 0.232833,0 0.334433,0.05927 0.469899,0.1651 0.0381,0.0381 0.04657,0.0381 0.05927,0.0381 0.0381,0 0.04233,-0.02117 0.05927,-0.118533 0.0042,-0.02117 0.02963,-0.143934 0.02963,-0.156634 0,-0.0381 -0.0127,-0.04233 -0.07197,-0.0762 -0.1651,-0.09737 -0.2794,-0.148166 -0.550333,-0.148166 -0.584199,0 -0.888999,0.389466 -0.888999,1.058332 0,0.131234 0,0.499533 0.224366,0.7747 0.169334,0.2032 0.427567,0.270933 0.6477,0.270933 0.0762,0 0.2413,-0.0085 0.410633,-0.0889 0,0 0.254,-0.127 0.254,-0.2159 z"
           style="font-family:'Latin Modern Sans Demi Cond';-inkscape-font-specification:'Latin Modern Sans Demi Cond'"
           id="path66186" />
        <path
           d="m 24.617129,-44.043247 c 0,-0.402166 -0.110067,-1.037165 -0.715433,-1.037165 -0.258233,0 -0.427566,0.152399 -0.4953,0.232833 v -0.944033 c 0,-0.131233 -0.0254,-0.186266 -0.186266,-0.186266 h -0.08043 c -0.148167,0 -0.1905,0.0381 -0.1905,0.190499 v 2.556932 c 0,0.148166 0.0381,0.190499 0.1905,0.190499 h 0.09313 c 0.0762,0 0.182033,0 0.186266,-0.148166 0.0635,0.08043 0.194734,0.1905 0.402167,0.1905 0.211666,0 0.461433,-0.08043 0.626533,-0.3302 0.169333,-0.254 0.169333,-0.592666 0.169333,-0.715433 z m -0.4699,-0.0042 c 0,0.2667 0,0.778933 -0.440266,0.778933 -0.160867,0 -0.254,-0.1143 -0.287867,-0.169334 v -1.130299 c 0,-0.0762 0,-0.101599 0.110067,-0.177799 0.0762,-0.04657 0.160866,-0.0635 0.220133,-0.0635 0.397933,0 0.397933,0.503766 0.397933,0.761999 z"
           style="font-family:'Latin Modern Sans Demi Cond';-inkscape-font-specification:'Latin Modern Sans Demi Cond'"
           id="path66188" />
        <path
           d="m 26.594094,-44.026313 c 0,-0.220133 -0.0042,-0.448733 -0.143933,-0.6858 -0.118533,-0.198966 -0.283633,-0.334433 -0.567266,-0.334433 -0.2413,0 -0.389467,0.148167 -0.4699,0.351367 0.0127,-0.364067 0.04233,-1.045633 0.579966,-1.045633 0.08467,0 0.173567,0.02117 0.2413,0.0635 0.0508,0.02963 0.06773,0.02963 0.06773,0.02963 0.04657,0 0.04657,-0.04233 0.04657,-0.110066 v -0.1016 c 0,-0.09313 0,-0.105833 -0.131233,-0.156633 -0.1016,-0.04233 -0.194733,-0.04233 -0.237067,-0.04233 -0.283633,0 -0.609599,0.127 -0.817032,0.4572 -0.237067,0.389466 -0.237067,0.872066 -0.237067,1.126066 0,0.372533 0,1.515532 0.846666,1.515532 0.198967,0 0.427566,-0.04657 0.605366,-0.2794 0.198967,-0.258233 0.2159,-0.4826 0.2159,-0.787399 z m -0.486833,0 c 0,0.338666 0,0.728132 -0.338666,0.728132 -0.313267,0 -0.347133,-0.486833 -0.347133,-0.804332 0,-0.4699 0.143933,-0.6731 0.364066,-0.6731 0.321733,0 0.321733,0.402167 0.321733,0.7493 z"
           style="font-family:'Latin Modern Sans Demi Cond';-inkscape-font-specification:'Latin Modern Sans Demi Cond'"
           id="path66190" />
        <path
           d="m 28.507552,-44.204113 c 0,-0.579966 -0.270933,-0.897466 -0.762,-0.897466 -0.372533,0 -0.867832,0.211666 -0.867832,1.049866 0,0.825499 0.503766,1.054099 0.918632,1.054099 0.156634,0 0.287867,-0.03387 0.4191,-0.09313 0.08043,-0.0381 0.2667,-0.143934 0.2667,-0.224367 0,-0.03387 -0.0085,-0.1143 -0.0127,-0.1524 -0.0127,-0.08043 -0.0127,-0.1016 -0.05503,-0.1016 -0.02117,0 -0.03387,0.0127 -0.05503,0.0381 -0.198966,0.237067 -0.457199,0.262467 -0.546099,0.262467 -0.499533,0 -0.499533,-0.626533 -0.499533,-0.753533 h 1.007532 c 0.135467,0 0.186267,-0.02963 0.186267,-0.182033 z m -0.364067,-0.01693 h -0.825499 c 0.01693,-0.304799 0.1397,-0.609599 0.4318,-0.609599 0.368299,0 0.385233,0.3937 0.393699,0.609599 z"
           style="font-family:'Latin Modern Sans Demi Cond';-inkscape-font-specification:'Latin Modern Sans Demi Cond'"
           id="path66192" />
        <path
           d="m 30.526848,-44.043247 c 0,-0.402166 -0.110066,-1.037165 -0.715433,-1.037165 -0.258233,0 -0.427566,0.152399 -0.495299,0.232833 v -0.944033 c 0,-0.131233 -0.0254,-0.186266 -0.186267,-0.186266 h -0.08043 c -0.148166,0 -0.1905,0.0381 -0.1905,0.190499 v 2.556932 c 0,0.148166 0.0381,0.190499 0.1905,0.190499 h 0.09313 c 0.0762,0 0.182034,0 0.186267,-0.148166 0.0635,0.08043 0.194733,0.1905 0.402166,0.1905 0.211667,0 0.461433,-0.08043 0.626533,-0.3302 0.169333,-0.254 0.169333,-0.592666 0.169333,-0.715433 z m -0.469899,-0.0042 c 0,0.2667 0,0.778933 -0.440267,0.778933 -0.160866,0 -0.254,-0.1143 -0.287866,-0.169334 v -1.130299 c 0,-0.0762 0,-0.101599 0.110066,-0.177799 0.0762,-0.04657 0.160867,-0.0635 0.220134,-0.0635 0.397933,0 0.397933,0.503766 0.397933,0.761999 z"
           style="font-family:'Latin Modern Sans Demi Cond';-inkscape-font-specification:'Latin Modern Sans Demi Cond'"
           id="path66194" />
        <path
           d="m 32.503814,-44.551246 c 0,-0.376767 0,-1.507066 -0.8255,-1.507066 -0.270933,0 -0.469899,0.08467 -0.630766,0.287867 -0.207433,0.2667 -0.211666,0.520699 -0.211666,0.774699 0,0.198967 0,0.436033 0.135466,0.668866 0.105833,0.186267 0.258233,0.3556 0.575733,0.3556 0.2032,0 0.3556,-0.09313 0.4699,-0.351366 -0.01693,0.325966 -0.02117,0.461433 -0.08467,0.656166 -0.08043,0.253999 -0.258233,0.368299 -0.436033,0.368299 -0.1905,0 -0.275166,-0.09737 -0.3175,-0.148166 -0.02117,-0.02117 -0.03387,-0.0254 -0.0508,-0.0254 -0.04657,0 -0.165099,0.258233 -0.165099,0.258233 0,0.02963 0.169333,0.254 0.537632,0.254 0.321734,0 0.592667,-0.173567 0.745066,-0.4064 0.249767,-0.3937 0.258234,-0.859366 0.258234,-1.185332 z m -0.491067,-0.3556 c 0,0.0762 0,0.664633 -0.368299,0.664633 -0.321733,0 -0.321733,-0.4064 -0.321733,-0.7493 0,-0.338666 0,-0.749299 0.359833,-0.749299 0.266699,0 0.330199,0.402166 0.330199,0.833966 z"
           style="font-family:'Latin Modern Sans Demi Cond';-inkscape-font-specification:'Latin Modern Sans Demi Cond'"
           id="path66196" />
        <path
           d="m 34.404571,-43.226214 v -1.214966 c 0,-0.393699 -0.224366,-0.660399 -0.736599,-0.660399 -0.237067,0 -0.4064,0.04657 -0.579966,0.131233 -0.08043,0.04233 -0.1016,0.0508 -0.1016,0.09737 0,0.02963 0.0085,0.118533 0.0127,0.1524 0.0085,0.09737 0.0127,0.122766 0.05503,0.122766 0.02117,0 0.0254,-0.0042 0.06773,-0.04233 0.173567,-0.169333 0.3683,-0.211667 0.529167,-0.211667 0.09313,0 0.283633,0 0.283633,0.414867 v 0.08467 c 0,0.07197 -0.0042,0.0762 -0.04657,0.08043 -0.182033,0.0085 -1.058332,0.04657 -1.058332,0.673099 0,0.3048 0.224366,0.601133 0.554566,0.601133 0.3048,0 0.495299,-0.211667 0.563033,-0.334433 v 0.105833 c 0,0.131233 0.0254,0.186266 0.186266,0.186266 h 0.08467 c 0.148166,0 0.186266,-0.04233 0.186266,-0.186266 z m -0.469899,-0.4699 c 0,0.385233 -0.3048,0.427567 -0.376767,0.427567 -0.169333,0 -0.283633,-0.160867 -0.283633,-0.338667 0,-0.431799 0.4572,-0.503766 0.6604,-0.516466 z"
           style="font-family:'Latin Modern Sans Demi Cond';-inkscape-font-specification:'Latin Modern Sans Demi Cond'"
           id="path66198" />
        <path
           d="m 36.445032,-44.49198 c 0,-0.520699 0,-1.566332 -0.846666,-1.566332 -0.846666,0 -0.846666,1.045633 -0.846666,1.566332 0,0.5207 0,1.532466 0.846666,1.532466 0.846666,0 0.846666,-1.011766 0.846666,-1.532466 z m -0.4699,-0.05927 c 0,0.677333 0,1.320799 -0.376766,1.320799 -0.376766,0 -0.376766,-0.643466 -0.376766,-1.320799 0,-0.258233 0,-0.529166 0.0254,-0.753533 0.0127,-0.09313 0.05927,-0.4826 0.351366,-0.4826 0.376766,0 0.376766,0.5842 0.376766,1.236133 z"
           style="font-family:'Latin Modern Sans Demi Cond';-inkscape-font-specification:'Latin Modern Sans Demi Cond'"
           id="path66200" />
        <path
           d="m 38.443158,-44.026313 c 0,-0.220133 -0.0042,-0.448733 -0.143933,-0.6858 -0.118533,-0.198966 -0.283633,-0.334433 -0.567266,-0.334433 -0.2413,0 -0.389467,0.148167 -0.4699,0.351367 0.0127,-0.364067 0.04233,-1.045633 0.579966,-1.045633 0.08467,0 0.173567,0.02117 0.2413,0.0635 0.0508,0.02963 0.06773,0.02963 0.06773,0.02963 0.04657,0 0.04657,-0.04233 0.04657,-0.110066 v -0.1016 c 0,-0.09313 0,-0.105833 -0.131233,-0.156633 -0.1016,-0.04233 -0.194734,-0.04233 -0.237067,-0.04233 -0.283633,0 -0.609599,0.127 -0.817032,0.4572 -0.237067,0.389466 -0.237067,0.872066 -0.237067,1.126066 0,0.372533 0,1.515532 0.846666,1.515532 0.198967,0 0.427566,-0.04657 0.605366,-0.2794 0.198967,-0.258233 0.2159,-0.4826 0.2159,-0.787399 z m -0.486833,0 c 0,0.338666 0,0.728132 -0.338666,0.728132 -0.313267,0 -0.347133,-0.486833 -0.347133,-0.804332 0,-0.4699 0.143933,-0.6731 0.364066,-0.6731 0.321733,0 0.321733,0.402167 0.321733,0.7493 z"
           style="font-family:'Latin Modern Sans Demi Cond';-inkscape-font-specification:'Latin Modern Sans Demi Cond'"
           id="path66202" />
        <path
           d="m 40.466684,-44.49198 c 0,-0.520699 0,-1.566332 -0.846666,-1.566332 -0.846666,0 -0.846666,1.045633 -0.846666,1.566332 0,0.5207 0,1.532466 0.846666,1.532466 0.846666,0 0.846666,-1.011766 0.846666,-1.532466 z m -0.469899,-0.05927 c 0,0.677333 0,1.320799 -0.376767,1.320799 -0.376766,0 -0.376766,-0.643466 -0.376766,-1.320799 0,-0.258233 0,-0.529166 0.0254,-0.753533 0.0127,-0.09313 0.05927,-0.4826 0.351366,-0.4826 0.376767,0 0.376767,0.5842 0.376767,1.236133 z"
           style="font-family:'Latin Modern Sans Demi Cond';-inkscape-font-specification:'Latin Modern Sans Demi Cond'"
           id="path66204" />
        <path
           d="m 42.367444,-44.204113 c 0,-0.579966 -0.270933,-0.897466 -0.762,-0.897466 -0.372533,0 -0.867832,0.211666 -0.867832,1.049866 0,0.825499 0.503766,1.054099 0.918632,1.054099 0.156633,0 0.287867,-0.03387 0.4191,-0.09313 0.08043,-0.0381 0.2667,-0.143934 0.2667,-0.224367 0,-0.03387 -0.0085,-0.1143 -0.0127,-0.1524 -0.0127,-0.08043 -0.0127,-0.1016 -0.05503,-0.1016 -0.02117,0 -0.03387,0.0127 -0.05503,0.0381 -0.198966,0.237067 -0.4572,0.262467 -0.546099,0.262467 -0.499533,0 -0.499533,-0.626533 -0.499533,-0.753533 h 1.007532 c 0.135467,0 0.186267,-0.02963 0.186267,-0.182033 z m -0.364067,-0.01693 h -0.825499 c 0.01693,-0.304799 0.1397,-0.609599 0.4318,-0.609599 0.368299,0 0.385233,0.3937 0.393699,0.609599 z"
           style="font-family:'Latin Modern Sans Demi Cond';-inkscape-font-specification:'Latin Modern Sans Demi Cond'"
           id="path66206" />
        <path
           d="m 44.289372,-43.97128 c 0,-0.2032 -0.02117,-0.465666 -0.186267,-0.694266 -0.110067,-0.1524 -0.321733,-0.270933 -0.584199,-0.270933 -0.1016,0 -0.2032,0.02117 -0.2921,0.0635 v -0.740833 h 0.740833 c 0.135466,0 0.186266,-0.02963 0.186266,-0.182033 0,-0.148167 -0.04657,-0.182033 -0.186266,-0.182033 h -0.994833 c -0.156633,0 -0.1905,0.04657 -0.1905,0.194733 v 1.261532 c 0,0.1016 0.0042,0.194733 0.182033,0.194733 0.08467,0 0.122767,-0.0085 0.1651,-0.08467 0.04233,-0.06773 0.148167,-0.254 0.381,-0.254 0.262466,0 0.262466,0.414866 0.262466,0.681566 0,0.2794 0,0.685799 -0.410633,0.685799 -0.0381,0 -0.376766,0 -0.533399,-0.376766 -0.0042,-0.01693 -0.01693,-0.0381 -0.04657,-0.0381 -0.05503,0 -0.160866,0.2667 -0.160866,0.2667 0,0.04657 0.228599,0.486833 0.753532,0.486833 0.325967,0 0.550333,-0.127 0.6731,-0.258233 0.232833,-0.258233 0.2413,-0.601133 0.2413,-0.753533 z"
           style="font-family:'Latin Modern Sans Demi Cond';-inkscape-font-specification:'Latin Modern Sans Demi Cond'"
           id="path66208" />
        <path
           d="m 46.389098,-43.912013 c 0,-0.173567 -0.09737,-0.173567 -0.186267,-0.173567 h -0.1524 v -1.706032 c 0,-0.143933 -0.0381,-0.186266 -0.186266,-0.186266 h -0.220133 c -0.1016,0 -0.131234,0.0042 -0.1778,0.1016 l -0.833966,1.731431 c -0.02963,0.05927 -0.02963,0.06773 -0.02963,0.1397 v 0.0762 c 0,0.131233 0.0254,0.186267 0.186267,0.186267 h 0.817033 v 0.516466 c 0,0.131233 0.0254,0.186266 0.186266,0.186266 h 0.07197 c 0.148166,0 0.186266,-0.04233 0.186266,-0.186266 v -0.516466 h 0.1524 c 0.08467,0 0.186267,0 0.186267,-0.169333 z m -0.757766,-0.173567 h -0.656167 c 0.06773,-0.148167 0.3302,-0.668866 0.524933,-1.142999 0.05503,-0.131233 0.127,-0.3175 0.131234,-0.3683 z"
           style="font-family:'Latin Modern Sans Demi Cond';-inkscape-font-specification:'Latin Modern Sans Demi Cond'"
           id="path66210" />
        <path
           d="m 48.40839,-44.043247 c 0,-0.402166 -0.110066,-1.037165 -0.715432,-1.037165 -0.258233,0 -0.427567,0.152399 -0.4953,0.232833 v -0.944033 c 0,-0.131233 -0.0254,-0.186266 -0.186266,-0.186266 h -0.08043 c -0.148166,0 -0.1905,0.0381 -0.1905,0.190499 v 2.556932 c 0,0.148166 0.0381,0.190499 0.1905,0.190499 h 0.09313 c 0.0762,0 0.182033,0 0.186266,-0.148166 0.0635,0.08043 0.194733,0.1905 0.402166,0.1905 0.211667,0 0.461433,-0.08043 0.626533,-0.3302 0.169333,-0.254 0.169333,-0.592666 0.169333,-0.715433 z m -0.469899,-0.0042 c 0,0.2667 0,0.778933 -0.440267,0.778933 -0.160866,0 -0.253999,-0.1143 -0.287866,-0.169334 v -1.130299 c 0,-0.0762 0,-0.101599 0.110067,-0.177799 0.0762,-0.04657 0.160866,-0.0635 0.220133,-0.0635 0.397933,0 0.397933,0.503766 0.397933,0.761999 z"
           style="font-family:'Latin Modern Sans Demi Cond';-inkscape-font-specification:'Latin Modern Sans Demi Cond'"
           id="path66212" />
        <path
           d="m 49.940854,-45.749279 v -0.118533 c 0,-0.1016 -0.0042,-0.105833 -0.122766,-0.131233 -0.110067,-0.02117 -0.198967,-0.02117 -0.237067,-0.02117 -0.465666,0 -0.702732,0.249767 -0.702732,0.656166 v 0.325967 c -0.09737,0 -0.224367,0 -0.224367,0.135466 0,0.135467 0.122767,0.135467 0.224367,0.135467 v 1.536699 c 0,0.148166 0.0381,0.190499 0.190499,0.190499 h 0.08043 c 0.148166,0 0.186266,-0.04233 0.186266,-0.186266 v -1.540932 h 0.173567 c 0.05503,0 0.186266,0 0.186266,-0.135467 0,-0.135466 -0.131233,-0.135466 -0.186266,-0.135466 h -0.186267 v -0.4318 c 0,-0.1016 0,-0.2794 0.258233,-0.2794 0.0762,0 0.1651,0.0127 0.258233,0.08043 0.02963,0.02117 0.0381,0.0254 0.05503,0.0254 0.04657,0 0.04657,-0.0381 0.04657,-0.105834 z"
           style="font-family:'Latin Modern Sans Demi Cond';-inkscape-font-specification:'Latin Modern Sans Demi Cond'"
           id="path66214" />
        <path
           d="m 51.613015,-43.88238 c 0,-0.381 -0.1651,-0.639233 -0.491066,-0.745066 0.359833,-0.1143 0.436033,-0.4064 0.436033,-0.630766 0,-0.491067 -0.2667,-0.8001 -0.778933,-0.8001 -0.520699,0 -0.778933,0.3175 -0.778933,0.8001 0,0.241299 0.08467,0.516466 0.436033,0.630766 -0.376766,0.122766 -0.491066,0.431799 -0.491066,0.745066 0,0.613833 0.3302,0.922866 0.833966,0.922866 0.5207,0 0.833966,-0.325967 0.833966,-0.922866 z m -0.491066,-1.371599 c 0,0.198967 0,0.491066 -0.3429,0.491066 -0.3429,0 -0.3429,-0.292099 -0.3429,-0.491066 0,-0.211666 0,-0.486833 0.3429,-0.486833 0.3429,0 0.3429,0.2794 0.3429,0.486833 z m 0.0085,1.363132 c 0,0.249767 0,0.592666 -0.351366,0.592666 -0.351366,0 -0.351366,-0.342899 -0.351366,-0.592666 0,-0.237066 0,-0.601133 0.351366,-0.601133 0.351366,0 0.351366,0.364067 0.351366,0.601133 z"
           style="font-family:'Latin Modern Sans Demi Cond';-inkscape-font-specification:'Latin Modern Sans Demi Cond'"
           id="path66216" />
        <path
           d="m 53.589975,-43.226214 v -2.565398 c 0,-0.131233 -0.0254,-0.186266 -0.186267,-0.186266 h -0.08467 c -0.148166,0 -0.186266,0.04233 -0.186266,0.186266 v 0.918633 c -0.0635,-0.0762 -0.211667,-0.207433 -0.4445,-0.207433 -0.09737,0 -0.393699,0.02117 -0.584199,0.296333 -0.182033,0.266699 -0.182033,0.609599 -0.182033,0.745066 0,0.1143 0,0.448733 0.148166,0.698499 0.182033,0.300566 0.4445,0.3429 0.5969,0.3429 0.283633,0 0.440266,-0.207433 0.452966,-0.2286 0,0.131233 0.0254,0.186266 0.186266,0.186266 h 0.09737 c 0.148167,0 0.186267,-0.04233 0.186267,-0.186266 z m -0.4699,-0.2413 c -0.06773,0.105833 -0.1778,0.198967 -0.3302,0.198967 -0.397933,0 -0.397933,-0.503767 -0.397933,-0.766233 0,-0.262466 0,-0.774699 0.440266,-0.774699 0.1778,0 0.2794,0.135466 0.287867,0.143933 z"
           style="font-family:'Latin Modern Sans Demi Cond';-inkscape-font-specification:'Latin Modern Sans Demi Cond'"
           id="path66218" />
        <path
           d="m 55.668538,-44.026313 c 0,-0.220133 -0.0042,-0.448733 -0.143933,-0.6858 -0.118533,-0.198966 -0.283633,-0.334433 -0.567266,-0.334433 -0.2413,0 -0.389467,0.148167 -0.4699,0.351367 0.0127,-0.364067 0.04233,-1.045633 0.579966,-1.045633 0.08467,0 0.173567,0.02117 0.2413,0.0635 0.0508,0.02963 0.06773,0.02963 0.06773,0.02963 0.04657,0 0.04657,-0.04233 0.04657,-0.110066 v -0.1016 c 0,-0.09313 0,-0.105833 -0.131233,-0.156633 -0.1016,-0.04233 -0.194734,-0.04233 -0.237067,-0.04233 -0.283633,0 -0.609599,0.127 -0.817033,0.4572 -0.237066,0.389466 -0.237066,0.872066 -0.237066,1.126066 0,0.372533 0,1.515532 0.846666,1.515532 0.198966,0 0.427566,-0.04657 0.605366,-0.2794 0.198967,-0.258233 0.2159,-0.4826 0.2159,-0.787399 z m -0.486833,0 c 0,0.338666 0,0.728132 -0.338666,0.728132 -0.313267,0 -0.347133,-0.486833 -0.347133,-0.804332 0,-0.4699 0.143933,-0.6731 0.364066,-0.6731 0.321733,0 0.321733,0.402167 0.321733,0.7493 z"
           style="font-family:'Latin Modern Sans Demi Cond';-inkscape-font-specification:'Latin Modern Sans Demi Cond'"
           id="path66220" />
        <path
           d="m 57.679364,-44.551246 c 0,-0.376767 0,-1.507066 -0.825499,-1.507066 -0.270933,0 -0.4699,0.08467 -0.630766,0.287867 -0.207434,0.2667 -0.211667,0.520699 -0.211667,0.774699 0,0.198967 0,0.436033 0.135467,0.668866 0.105833,0.186267 0.258233,0.3556 0.575733,0.3556 0.203199,0 0.355599,-0.09313 0.469899,-0.351366 -0.01693,0.325966 -0.02117,0.461433 -0.08467,0.656166 -0.08043,0.253999 -0.258234,0.368299 -0.436033,0.368299 -0.1905,0 -0.275167,-0.09737 -0.3175,-0.148166 -0.02117,-0.02117 -0.03387,-0.0254 -0.0508,-0.0254 -0.04657,0 -0.1651,0.258233 -0.1651,0.258233 0,0.02963 0.169333,0.254 0.537633,0.254 0.321733,0 0.592666,-0.173567 0.745066,-0.4064 0.249766,-0.3937 0.258233,-0.859366 0.258233,-1.185332 z m -0.491066,-0.3556 c 0,0.0762 0,0.664633 -0.3683,0.664633 -0.321733,0 -0.321733,-0.4064 -0.321733,-0.7493 0,-0.338666 0,-0.749299 0.359833,-0.749299 0.2667,0 0.3302,0.402166 0.3302,0.833966 z"
           style="font-family:'Latin Modern Sans Demi Cond';-inkscape-font-specification:'Latin Modern Sans Demi Cond'"
           id="path66222" />
        <path
           d="m 59.660553,-43.226214 v -0.0254 c 0,-0.186267 -0.05927,-0.186267 -0.296333,-0.186267 l -0.262466,0.0042 h -0.516467 c -0.04657,0 -0.05503,0 -0.08467,0.0042 l 0.410633,-0.465666 c 0.533399,-0.5715 0.749299,-0.804333 0.749299,-1.219199 0,-0.4953 -0.309033,-0.944033 -0.859366,-0.944033 -0.224366,0 -0.4064,0.0762 -0.541866,0.220134 -0.173567,0.190499 -0.237067,0.452966 -0.237067,0.465666 0,0.0254 0.0635,0.1143 0.135467,0.220133 0.02963,0.0381 0.0381,0.0508 0.0635,0.0508 0.0381,0 0.04233,-0.02117 0.05927,-0.08043 0.05927,-0.249767 0.160866,-0.512233 0.461432,-0.512233 0.4191,0 0.4318,0.516466 0.4318,0.584199 0,0.3048 -0.1651,0.5969 -0.359833,0.842433 l -0.723899,0.910166 c -0.0381,0.04233 -0.0381,0.0508 -0.0381,0.127 0,0.148166 0.0381,0.190499 0.1905,0.190499 h 1.231899 c 0.148166,0 0.186266,-0.04233 0.186266,-0.186266 z"
           style="font-family:'Latin Modern Sans Demi Cond';-inkscape-font-specification:'Latin Modern Sans Demi Cond'"
           id="path66224" />
        <path
           d="m 61.701012,-43.88238 c 0,-0.381 -0.165099,-0.639233 -0.491066,-0.745066 0.359833,-0.1143 0.436033,-0.4064 0.436033,-0.630766 0,-0.491067 -0.2667,-0.8001 -0.778932,-0.8001 -0.5207,0 -0.778933,0.3175 -0.778933,0.8001 0,0.241299 0.08467,0.516466 0.436033,0.630766 -0.376767,0.122766 -0.491066,0.431799 -0.491066,0.745066 0,0.613833 0.330199,0.922866 0.833966,0.922866 0.520699,0 0.833965,-0.325967 0.833965,-0.922866 z m -0.491066,-1.371599 c 0,0.198967 0,0.491066 -0.342899,0.491066 -0.3429,0 -0.3429,-0.292099 -0.3429,-0.491066 0,-0.211666 0,-0.486833 0.3429,-0.486833 0.342899,0 0.342899,0.2794 0.342899,0.486833 z m 0.0085,1.363132 c 0,0.249767 0,0.592666 -0.351366,0.592666 -0.351367,0 -0.351367,-0.342899 -0.351367,-0.592666 0,-0.237066 0,-0.601133 0.351367,-0.601133 0.351366,0 0.351366,0.364067 0.351366,0.601133 z"
           style="font-family:'Latin Modern Sans Demi Cond';-inkscape-font-specification:'Latin Modern Sans Demi Cond'"
           id="path66226" />
        <path
           d="m 63.711839,-43.88238 c 0,-0.381 -0.1651,-0.639233 -0.491067,-0.745066 0.359833,-0.1143 0.436033,-0.4064 0.436033,-0.630766 0,-0.491067 -0.266699,-0.8001 -0.778932,-0.8001 -0.5207,0 -0.778933,0.3175 -0.778933,0.8001 0,0.241299 0.08467,0.516466 0.436033,0.630766 -0.376766,0.122766 -0.491066,0.431799 -0.491066,0.745066 0,0.613833 0.330199,0.922866 0.833966,0.922866 0.520699,0 0.833966,-0.325967 0.833966,-0.922866 z m -0.491067,-1.371599 c 0,0.198967 0,0.491066 -0.342899,0.491066 -0.3429,0 -0.3429,-0.292099 -0.3429,-0.491066 0,-0.211666 0,-0.486833 0.3429,-0.486833 0.342899,0 0.342899,0.2794 0.342899,0.486833 z m 0.0085,1.363132 c 0,0.249767 0,0.592666 -0.351366,0.592666 -0.351367,0 -0.351367,-0.342899 -0.351367,-0.592666 0,-0.237066 0,-0.601133 0.351367,-0.601133 0.351366,0 0.351366,0.364067 0.351366,0.601133 z"
           style="font-family:'Latin Modern Sans Demi Cond';-inkscape-font-specification:'Latin Modern Sans Demi Cond'"
           id="path66228" />
        <path
           d="m 65.278165,-45.749279 v -0.118533 c 0,-0.1016 -0.0042,-0.105833 -0.122766,-0.131233 -0.110067,-0.02117 -0.198967,-0.02117 -0.237067,-0.02117 -0.465666,0 -0.702733,0.249767 -0.702733,0.656166 v 0.325967 c -0.09737,0 -0.224366,0 -0.224366,0.135466 0,0.135467 0.122766,0.135467 0.224366,0.135467 v 1.536699 c 0,0.148166 0.0381,0.190499 0.1905,0.190499 h 0.08043 c 0.148167,0 0.186267,-0.04233 0.186267,-0.186266 v -1.540932 h 0.173566 c 0.05503,0 0.186267,0 0.186267,-0.135467 0,-0.135466 -0.131233,-0.135466 -0.186267,-0.135466 h -0.186266 v -0.4318 c 0,-0.1016 0,-0.2794 0.258233,-0.2794 0.0762,0 0.1651,0.0127 0.258233,0.08043 0.02963,0.02117 0.0381,0.0254 0.05503,0.0254 0.04657,0 0.04657,-0.0381 0.04657,-0.105834 z"
           style="font-family:'Latin Modern Sans Demi Cond';-inkscape-font-specification:'Latin Modern Sans Demi Cond'"
           id="path66230" />
        <path
           d="m 67.018059,-44.043247 c 0,-0.402166 -0.110066,-1.037165 -0.715433,-1.037165 -0.258233,0 -0.427566,0.152399 -0.495299,0.232833 v -0.944033 c 0,-0.131233 -0.0254,-0.186266 -0.186267,-0.186266 h -0.08043 c -0.148167,0 -0.1905,0.0381 -0.1905,0.190499 v 2.556932 c 0,0.148166 0.0381,0.190499 0.1905,0.190499 h 0.09313 c 0.0762,0 0.182033,0 0.186267,-0.148166 0.0635,0.08043 0.194733,0.1905 0.402166,0.1905 0.211667,0 0.461433,-0.08043 0.626533,-0.3302 0.169333,-0.254 0.169333,-0.592666 0.169333,-0.715433 z m -0.469899,-0.0042 c 0,0.2667 0,0.778933 -0.440267,0.778933 -0.160866,0 -0.254,-0.1143 -0.287866,-0.169334 v -1.130299 c 0,-0.0762 0,-0.101599 0.110066,-0.177799 0.0762,-0.04657 0.160867,-0.0635 0.220134,-0.0635 0.397933,0 0.397933,0.503766 0.397933,0.761999 z"
           style="font-family:'Latin Modern Sans Demi Cond';-inkscape-font-specification:'Latin Modern Sans Demi Cond'"
           id="path66232" />
        <path
           d="m 69.007722,-44.204113 c 0,-0.579966 -0.270934,-0.897466 -0.762,-0.897466 -0.372533,0 -0.867832,0.211666 -0.867832,1.049866 0,0.825499 0.503766,1.054099 0.918632,1.054099 0.156633,0 0.287867,-0.03387 0.4191,-0.09313 0.08043,-0.0381 0.2667,-0.143934 0.2667,-0.224367 0,-0.03387 -0.0085,-0.1143 -0.0127,-0.1524 -0.0127,-0.08043 -0.0127,-0.1016 -0.05503,-0.1016 -0.02117,0 -0.03387,0.0127 -0.05503,0.0381 -0.198967,0.237067 -0.4572,0.262467 -0.5461,0.262467 -0.499532,0 -0.499532,-0.626533 -0.499532,-0.753533 h 1.007532 c 0.135467,0 0.186267,-0.02963 0.186267,-0.182033 z m -0.364067,-0.01693 h -0.825499 c 0.01693,-0.304799 0.1397,-0.609599 0.431799,-0.609599 0.3683,0 0.385233,0.3937 0.3937,0.609599 z"
           style="font-family:'Latin Modern Sans Demi Cond';-inkscape-font-specification:'Latin Modern Sans Demi Cond'"
           id="path66234" />
        <path
           d="m 70.861916,-44.204113 c 0,-0.579966 -0.270933,-0.897466 -0.761999,-0.897466 -0.372533,0 -0.867833,0.211666 -0.867833,1.049866 0,0.825499 0.503766,1.054099 0.918633,1.054099 0.156633,0 0.287866,-0.03387 0.419099,-0.09313 0.08043,-0.0381 0.2667,-0.143934 0.2667,-0.224367 0,-0.03387 -0.0085,-0.1143 -0.0127,-0.1524 -0.0127,-0.08043 -0.0127,-0.1016 -0.05503,-0.1016 -0.02117,0 -0.03387,0.0127 -0.05503,0.0381 -0.198967,0.237067 -0.4572,0.262467 -0.5461,0.262467 -0.499533,0 -0.499533,-0.626533 -0.499533,-0.753533 h 1.007533 c 0.135466,0 0.186266,-0.02963 0.186266,-0.182033 z m -0.364066,-0.01693 h -0.8255 c 0.01693,-0.304799 0.1397,-0.609599 0.4318,-0.609599 0.3683,0 0.385233,0.3937 0.3937,0.609599 z"
           style="font-family:'Latin Modern Sans Demi Cond';-inkscape-font-specification:'Latin Modern Sans Demi Cond'"
           id="path66236" />
        <path
           d="m 72.872744,-43.912013 c 0,-0.173567 -0.09737,-0.173567 -0.186267,-0.173567 h -0.152399 v -1.706032 c 0,-0.143933 -0.0381,-0.186266 -0.186267,-0.186266 h -0.220133 c -0.1016,0 -0.131233,0.0042 -0.1778,0.1016 l -0.833966,1.731431 c -0.02963,0.05927 -0.02963,0.06773 -0.02963,0.1397 v 0.0762 c 0,0.131233 0.0254,0.186267 0.186266,0.186267 h 0.817033 v 0.516466 c 0,0.131233 0.0254,0.186266 0.186267,0.186266 h 0.07197 c 0.148167,0 0.186267,-0.04233 0.186267,-0.186266 v -0.516466 h 0.152399 c 0.08467,0 0.186267,0 0.186267,-0.169333 z m -0.757766,-0.173567 h -0.656166 c 0.06773,-0.148167 0.3302,-0.668866 0.524933,-1.142999 0.05503,-0.131233 0.127,-0.3175 0.131233,-0.3683 z"
           style="font-family:'Latin Modern Sans Demi Cond';-inkscape-font-specification:'Latin Modern Sans Demi Cond'"
           id="path66238" />
        <path
           d="m 74.824303,-44.551246 c 0,-0.376767 0,-1.507066 -0.825499,-1.507066 -0.270933,0 -0.469899,0.08467 -0.630766,0.287867 -0.207433,0.2667 -0.211666,0.520699 -0.211666,0.774699 0,0.198967 0,0.436033 0.135466,0.668866 0.105833,0.186267 0.258233,0.3556 0.575733,0.3556 0.2032,0 0.3556,-0.09313 0.4699,-0.351366 -0.01693,0.325966 -0.02117,0.461433 -0.08467,0.656166 -0.08043,0.253999 -0.258233,0.368299 -0.436033,0.368299 -0.1905,0 -0.275166,-0.09737 -0.3175,-0.148166 -0.02117,-0.02117 -0.03387,-0.0254 -0.0508,-0.0254 -0.04657,0 -0.1651,0.258233 -0.1651,0.258233 0,0.02963 0.169334,0.254 0.537633,0.254 0.321733,0 0.592667,-0.173567 0.745066,-0.4064 0.249767,-0.3937 0.258233,-0.859366 0.258233,-1.185332 z m -0.491066,-0.3556 c 0,0.0762 0,0.664633 -0.368299,0.664633 -0.321734,0 -0.321734,-0.4064 -0.321734,-0.7493 0,-0.338666 0,-0.749299 0.359834,-0.749299 0.266699,0 0.330199,0.402166 0.330199,0.833966 z"
           style="font-family:'Latin Modern Sans Demi Cond';-inkscape-font-specification:'Latin Modern Sans Demi Cond'"
           id="path66240" />
        <path
           d="m 76.84783,-44.49198 c 0,-0.520699 0,-1.566332 -0.846666,-1.566332 -0.846666,0 -0.846666,1.045633 -0.846666,1.566332 0,0.5207 0,1.532466 0.846666,1.532466 0.846666,0 0.846666,-1.011766 0.846666,-1.532466 z m -0.4699,-0.05927 c 0,0.677333 0,1.320799 -0.376766,1.320799 -0.376767,0 -0.376767,-0.643466 -0.376767,-1.320799 0,-0.258233 0,-0.529166 0.0254,-0.753533 0.0127,-0.09313 0.05927,-0.4826 0.351367,-0.4826 0.376766,0 0.376766,0.5842 0.376766,1.236133 z"
           style="font-family:'Latin Modern Sans Demi Cond';-inkscape-font-specification:'Latin Modern Sans Demi Cond'"
           id="path66242" />
        <path
           d="m 78.905222,-43.912013 c 0,-0.173567 -0.09737,-0.173567 -0.186266,-0.173567 h -0.1524 v -1.706032 c 0,-0.143933 -0.0381,-0.186266 -0.186267,-0.186266 h -0.220133 c -0.1016,0 -0.131233,0.0042 -0.1778,0.1016 l -0.833966,1.731431 c -0.02963,0.05927 -0.02963,0.06773 -0.02963,0.1397 v 0.0762 c 0,0.131233 0.0254,0.186267 0.186267,0.186267 h 0.817032 v 0.516466 c 0,0.131233 0.0254,0.186266 0.186267,0.186266 h 0.07197 c 0.148167,0 0.186267,-0.04233 0.186267,-0.186266 v -0.516466 h 0.1524 c 0.08467,0 0.186266,0 0.186266,-0.169333 z M 78.147456,-44.08558 H 77.49129 c 0.06773,-0.148167 0.3302,-0.668866 0.524933,-1.142999 0.05503,-0.131233 0.127,-0.3175 0.131233,-0.3683 z"
           style="font-family:'Latin Modern Sans Demi Cond';-inkscape-font-specification:'Latin Modern Sans Demi Cond'"
           id="path66244" />
      </g>
    </g>
  </g>
</svg>
