<?xml version="1.0" encoding="UTF-8" standalone="no"?>
<svg
   data-name="Layer 1"
   width="712.66223"
   height="494.07489"
   viewBox="0 0 712.66225 494.07489"
   version="1.1"
   id="svg144"
   sodipodi:docname="08_background_bigger_dark.svg"
   inkscape:version="1.1.1 (3bf5ae0d25, 2021-09-20)"
   inkscape:export-filename="/home/adina/repos/ohbm-2022/video/00-background_bigger.png"
   inkscape:export-xdpi="300"
   inkscape:export-ydpi="300"
   xmlns:inkscape="http://www.inkscape.org/namespaces/inkscape"
   xmlns:sodipodi="http://sodipodi.sourceforge.net/DTD/sodipodi-0.dtd"
   xmlns:xlink="http://www.w3.org/1999/xlink"
   xmlns="http://www.w3.org/2000/svg"
   xmlns:svg="http://www.w3.org/2000/svg"
   xmlns:rdf="http://www.w3.org/1999/02/22-rdf-syntax-ns#"
   xmlns:cc="http://creativecommons.org/ns#"
   xmlns:dc="http://purl.org/dc/elements/1.1/">
  <sodipodi:namedview
     id="namedview146"
     pagecolor="#ffffff"
     bordercolor="#666666"
     borderopacity="1.0"
     inkscape:pageshadow="2"
     inkscape:pageopacity="0.0"
     inkscape:pagecheckerboard="0"
     showgrid="false"
     inkscape:zoom="0.91746376"
     inkscape:cx="432.16966"
     inkscape:cy="261.59072"
     inkscape:window-width="2560"
     inkscape:window-height="1403"
     inkscape:window-x="957"
     inkscape:window-y="0"
     inkscape:window-maximized="1"
     inkscape:current-layer="svg144"
     fit-margin-top="0"
     fit-margin-left="0"
     fit-margin-right="0"
     fit-margin-bottom="0" />
  <defs
     id="defs10">
    <linearGradient
       id="f137b292-0aa2-40b3-a442-9a256144b6d8-1490"
       x1="2938.8301"
       y1="215.39999"
       x2="2938.8301"
       y2="-91.93"
       gradientTransform="matrix(0.51,0.86,-0.86,0.51,-713.07,-2373.14)"
       gradientUnits="userSpaceOnUse">
      <stop
         offset="0"
         stop-color="gray"
         stop-opacity="0.25"
         id="stop2" />
      <stop
         offset="0.54"
         stop-color="gray"
         stop-opacity="0.12"
         id="stop4" />
      <stop
         offset="1"
         stop-color="gray"
         stop-opacity="0.1"
         id="stop6" />
    </linearGradient>
    <linearGradient
       id="ab747304-1bb2-44ed-8687-72ce94e318d2-1491"
       x1="1364.21"
       y1="820.41998"
       x2="1364.21"
       y2="492.03"
       gradientTransform="matrix(-1,-0.04,-0.04,1,2349.24,29.65)"
       xlink:href="#f137b292-0aa2-40b3-a442-9a256144b6d8-1490" />
  </defs>
  <title
     id="title12">monitor</title>
  <rect
     style="opacity:1;fill:#f9f9f9;fill-opacity:1;stroke:#333333;stroke-width:0.398524"
     id="rect16063"
     width="712.26373"
     height="493.67636"
     x="0.19926199"
     y="0.19926199" />
  <path
     d="m 496.92317,38.06003 a 10.36,10.36 0 0 0 -2.82,-2.55 8.54,8.54 0 0 0 -5.27,-0.54 c -4.46,0.68 -8.6,2.72 -12.52,5 -3.16,1.81 -6.3,3.82 -8.56,6.67 a 6.85,6.85 0 0 0 -1.51,3 6.18,6.18 0 0 0 0.23,2.73 6.6,6.6 0 0 0 3.57,4.62 c 2.09,0.82 4.42,-0.05 6.52,-0.85 2.82,-1.09 5.92,-2.1 8.82,-1.24 2.15,0.64 4,2.27 6.27,2.33 2.67,0.08 4.83,-2.08 6.53,-4.14 1.47,-1.8 4.69,-5.05 4.48,-7.58 -0.21,-2.53 -4.16,-5.64 -5.74,-7.45 z"
     fill="#fbbebe"
     id="path34" />
  <path
     d="m 530.62317,115.89003 a 17.27,17.27 0 0 1 -7.5,0.31 c -1.52,-0.28 -3.38,-0.64 -4.35,0.55 a 3.58,3.58 0 0 0 -0.61,1.48 c -2.49,10.19 -0.21,21 4,30.65 a 0.94,0.94 0 0 0 0.28,0.42 c 0.27,0.2 0.64,0.06 0.95,-0.07 a 11.28,11.28 0 0 0 2.83,-1.65 c 1.92,-1.74 2.33,-4.57 2.42,-7.16 0.09,-2.59 0.05,-5.33 1.39,-7.55 1.68,-2.75 5.19,-4.09 6.57,-7 1.11,-2.37 0.53,-5.18 -0.45,-7.6 -0.33,-0.84 -0.46,-3 -1.24,-3.41 -0.78,-0.41 -3.4,0.79 -4.29,1.03 z"
     fill="#fbbebe"
     id="path36" />
  <path
     d="m 496.63317,37.04003 a 1,1 0 0 0 0.42,-1.3 3.38,3.38 0 0 0 -0.92,-1.18 20.69,20.69 0 0 1 -2.38,-2.74 27.68,27.68 0 0 0 -2.63,-3.44 4.85,4.85 0 0 0 -3.89,-1.56 6,6 0 0 0 -2.25,0.9 36.36,36.36 0 0 0 -7.45,5.72 c -0.17,0.17 -0.36,0.38 -0.32,0.62 0.04,0.24 0.2,0.34 0.22,0.54 a 0.69,0.69 0 0 1 -0.18,0.49 20.68,20.68 0 0 1 -4.7,4.29 q -3.78,2.84 -7.4,5.9 a 10.3,10.3 0 0 0 -3.45,4.23 8.41,8.41 0 0 0 0.63,5.89 c 1.67,3.92 4.58,7.16 7.45,10.31 a 3.78,3.78 0 0 0 1.92,1.35 2.42,2.42 0 0 0 1.72,-0.42 c 1.75,-1.15 2,-3.55 2.15,-5.64 l 0.16,-2.89 a 1.29,1.29 0 0 1 0.11,-0.55 1.35,1.35 0 0 1 0.61,-0.49 l 2.72,-1.44 a 8.77,8.77 0 0 0 -8,-4.16 3,3 0 0 1 -2.14,-0.29 1.76,1.76 0 0 1 0,-2.44 5.38,5.38 0 0 1 2.36,-1.31 c 7.17,-2.63 13.65,-6.85 20.61,-10 a 5.29,5.29 0 0 1 2.46,-0.57 c 0.7,0.05 1.52,0.46 2.17,0.18 z"
     fill="#f86d70"
     id="path38" />
  <path
     d="m 524.88317,141.76003 c -0.32,0.6 -0.43,1.3 -0.78,1.89 -0.35,0.59 -1.11,1 -1.7,0.7 a 1.75,1.75 0 0 1 -0.66,-0.89 37.36,37.36 0 0 1 -2.45,-22.06 13.91,13.91 0 0 1 1.07,-3.52 c 0.53,-1.08 1.3,-2.18 1.08,-3.36 a 39.64,39.64 0 0 0 -8.18,3.64 c -1.7,1 -3.49,2.39 -3.65,4.35 a 6.84,6.84 0 0 0 0.33,2.24 l 0.94,3.53 a 3.65,3.65 0 0 0 0.84,1.77 c 0.3,0.3 0.71,0.49 1,0.81 a 3,3 0 0 1 0.54,1.26 l 0.79,3.06 a 19.6,19.6 0 0 1 0.63,3.12 c 0.09,1 0,1.92 0.08,2.88 a 31,31 0 0 0 0.7,4.69 l 1.13,5.54 a 19.26,19.26 0 0 0 1.32,4.5 c 0.47,1 1.1,1.86 1.49,2.87 0.29,0.77 0.44,1.59 0.8,2.32 a 6.29,6.29 0 0 0 2.89,2.69 3.39,3.39 0 0 0 1.41,0.45 c 1.41,0.05 2.42,-1.32 3.08,-2.58 a 15.56,15.56 0 0 0 2,-7.5 c 0,-1.06 -0.22,-2.11 -0.31,-3.17 -0.25,-3 0.59,-5.91 0.58,-8.9 0.02,-2.8 -3.94,-2.27 -4.97,-0.33 z"
     fill="#f86d70"
     id="path40" />
  <path
     d="m 589.98317,127.84003 c -4.94,0.2 -9.89,0.14 -14.81,0.61 -2.87,0.28 -5.73,0.75 -8.61,0.87 -3.14,0.14 -6.29,-0.11 -9.44,-0.05 -7.93,0.17 -15.75,2.28 -23.38,4.46 a 44.4,44.4 0 0 1 -3.31,-16.57 10.57,10.57 0 0 1 0,-1.13 11.37,11.37 0 0 1 1.41,-4.58 c 7,-2 14.1,-4 21.37,-3.9 2.37,0 4.72,0.28 7.08,0.35 6.85,0.21 13.51,-2.86 20.31,-2 a 3.2,3.2 0 0 0 3.25,-1.91 c 0.29,-0.74 0.41,-1.71 1.16,-2 0.54,-0.2 1.28,0.05 1.62,-0.41 a 2.1,2.1 0 0 0 0.21,-0.79 c 0.2,-1.000003 1.21,-1.450003 2,-2.000003 2,-1.38 3.13,-3.74 4.13,-6 a 4.07,4.07 0 0 0 0.47,-1.58 c 0,-0.44 -0.14,-0.88 -0.13,-1.33 0,-1.58 1.77,-2.49 2.69,-3.78 1.21,-1.699997 1,-3.999997 1.59,-5.999997 0.8,-2.52 2.93,-4.31 3.46,-6.79 a 4.94,4.94 0 0 0 0.12,-0.77 31.32,31.32 0 0 1 -7.21,5.54 c -8.88,5.47 -19.5,8.739997 -27.79,15.069997 -6.58,5 -16.22,4.85 -23.42,0.78 a 54.16,54.16 0 0 1 -7.66,-5.67 c -3.66,-2.999997 -7.36,-6.069997 -11.19,-8.929997 q -4,-3 -8.29,-5.79 a 114.13,114.13 0 0 0 -10.74,-6.29 c -4.58,-2.32 -9.19,-4.62 -14.29,-5.17 a 10.53,10.53 0 0 1 -0.28,-8.64 29.14,29.14 0 0 1 4.68,-7.55 21.78,21.78 0 0 1 5.36,-5.47 1.46,1.46 0 0 1 1.56,0 l 19.82,12.17 3.71,2.27 c 8.13,5 16.13,10.35 24.26,15.32 0.15,0.57 0.94,0.64 1.51,0.49 0.57,-0.15 1.22,-0.39 1.71,-0.06 0.24,0.16 0.41,0.46 0.71,0.52 a 1,1 0 0 0 0.66,-0.22 c 3.36,-2.31 5.08,-6.75 8.85,-8.3 1.61,-0.66 3.52,-0.76 4.78,-2 a 22.71,22.71 0 0 0 2,-3 c 1.63,-2.13 4.72,-2.77 6.23,-5 a 18.35,18.35 0 0 1 3.57,-3.84 33.83,33.83 0 0 0 7,-7.79 18.08,18.08 0 0 0 2.29,-4.72 c 0.26,-0.87 0.42,-1.77 0.71,-2.63 0.91,-2.62 3,-4.63 5.09,-6.45 3.79,-3.32 7.88,-6.47 12.68,-8 a 21.44,21.44 0 0 0 4.83,-1.75 c 1.93,-1.18 3.7,-3.37 5.91,-2.86 a 5,5 0 0 1 2.19,1.38 69.61,69.61 0 0 1 7.45,8.53 q 5.35,6.81 10.69,13.63 a 15.75,15.75 0 0 0 4.19,4.15 11.49,11.49 0 0 0 7.75,1 c -0.35,3.71 -3.3,6.77 -4.52,10.29 -0.59,1.71 -0.82,3.53 -1.26,5.28 a 43.25,43.25 0 0 1 -2.37,6.41 c -2.4,5.59 -4.82,11.21 -8.26,16.23 -1.78,2.61 -3.83,4.999997 -5.84,7.449997 -7.93,9.57 -14,21.110003 -23,29.720003 -2.18,2.11 -3.56,5 -6,6.81 -2.65,1.96 -6.07,2.26 -9.26,2.39 z"
     fill="#434175"
     id="path50" />
  <path
     d="m 590.68317,107.16003 -60.26,8.87 a 11.37,11.37 0 0 1 1.41,-4.58 c 7,-2 14.1,-4 21.37,-3.9 2.37,0 4.72,0.28 7.08,0.35 6.85,0.21 13.51,-2.86 20.31,-2 a 3.2,3.2 0 0 0 3.25,-1.91 c 0.29,-0.74 0.41,-1.71 1.16,-2 0.54,-0.2 1.28,0.05 1.62,-0.41 a 2.1,2.1 0 0 0 0.21,-0.79 c 0.2,-1.000003 1.21,-1.450003 2,-2.000003 2,-1.38 3.13,-3.74 4.13,-6 a 4.07,4.07 0 0 0 0.47,-1.58 c 0,-0.44 -0.14,-0.88 -0.13,-1.33 0,-1.58 1.77,-2.49 2.69,-3.78 1.21,-1.699997 1,-3.999997 1.59,-5.999997 0.8,-2.52 2.93,-4.31 3.46,-6.79 l 0.26,-0.34 10.26,-4 z"
     opacity="0.1"
     id="path64" />
  <path
     d="m 700.58317,25.86003 a 14.87,14.87 0 0 0 -14.8,-15 H 25.463171 a 14.88,14.88 0 0 0 -14.8,15 v 400.26 H 700.58317 Z"
     fill="#3f3d56"
     id="path78" />
  <path
     d="m 10.663171,422.12003 v 46.89 a 14.8,14.8 0 0 0 14.8,14.8 H 685.78317 a 14.8,14.8 0 0 0 14.8,-14.8 v -46.89 z"
     fill="#d0d2d5"
     id="path80" />
  <rect
     x="39.223167"
     y="36.040031"
     width="636.22998"
     height="359.81"
     fill="#2f2e41"
     id="rect82"
     style="fill:#f9f9f9" />
  <rect
     x="39.223167"
     y="36.040047"
     width="636.22998"
     height="359.81"
     fill="#2f2e41"
     id="rect82-7" />
  <path
     d="m 359.05317,466.02003 a 15.43,15.43 0 0 0 12.13,-5.89 v 0 a 15.28,15.28 0 0 0 1.2,-1.77 l -8.46,-1.39 9.15,0.07 a 15.44,15.44 0 0 0 0.29,-12.22 l -12.27,6.37 11.32,-8.32 a 15.42,15.42 0 1 0 -25.43,17.25 v 0 a 15.4,15.4 0 0 0 12.07,5.9 z"
     fill="#ffa200"
     id="path84" />
  <metadata
     id="metadata1055">
    <rdf:RDF>
      <cc:Work
         rdf:about="">
        <dc:title>monitor</dc:title>
      </cc:Work>
    </rdf:RDF>
  </metadata>
</svg>
